<svg version="1.2" xmlns="http://www.w3.org/2000/svg" viewBox="0 0 4102 1510" width="4102" height="1510"><style>.a{fill:#fff}.b{fill:#fcc072}.c{fill:#ff8691}.d{fill:#fcb75e}.e{fill:#ff7581}.f{fill:#d39a5c}.g{fill:#915ed5}.h{fill:#4c81f5}.i{fill:#f66160}.j{fill:#d6587f}.k{fill:#e04b75}.l{fill:#3370f5}.m{fill:#8247cf}.n{fill:#ff9800}.o{fill:#7933ae}.p{fill:#592acd}</style><path class="a" d="m732.5 1150.5c-13.5-13.5-14.5-17.5-14.5-52.5v-38h-92.5c-116 0-135-6-158-51-9-17-9.5-32-9.5-196.5 0-149.5 1-181 8-196.5 9-22.5 28.5-43.5 46.5-50.5 17.5-7 595.5-75.5 637.5-75.5 40 0 66 11.5 86.5 38.5l14 18 1.5 219.5c1 207 1 220.5-8.5 241-5 12-18 28-28.5 36l-18.5 14.5-122.5 1.5-122.5 1.5-55.5 44c-80 63-75.5 60.5-114.5 60.5-31 0-35.5-1.5-49-14.5z"/><path class="b" d="m203 1456c-53.5-26.5-36.5-101 23.5-101 31.5 0 51.5 20 51.5 51 0 26-10.5 42.5-33 52-21 9-21 9-42-2z"/><path class="b" d="m2709.5 1292.5c-26-11-36.5-33.5-36.5-78.5 0-34 1.5-39.5 11-46 6-4.5 15.5-8 20.5-8 15 0 38 14 45 28l7 13 17.5-15.5c21-18 36.5-48.5 41.5-80.5 6.5-43 13.5-65 20.5-65 17.5 0-1.5 104.5-25.5 140.5-7.5 11.5-17.5 22-23 23-5 1.5-9.5 4.5-9.5 7 0 2.5-7.5 4.5-16.5 4.5-12.5 0-21.5-4.5-35.5-18-24-23.5-33-17.5-33 21.5 0 24.5 2 29.5 17 44.5 9.5 9.5 21.5 17 27.5 17 7 0 10.5 3 10.5 10 0 12-14.5 13-38.5 2.5z"/><path class="b" d="m2758 1290c0-5.5 3.5-10 7.5-10 9.5 0 52-21.5 52.5-26 0-2.5 7.5-14.5 17-27.5 42-59 80-154 91-227 12.5-84 28-124 96.5-244.5 19.5-34 35.5-64 35.5-66 0-2.5-5.5-6.5-12-9.5-10-5-15.5-4-29.5 5-9.5 5.5-21 10.5-25.5 10.5-4.5 0-8 4-8 9.5 0 5.5-6.5 19.5-14 31.5-8 12-23 41.5-33.5 65.5-24.5 56-32 64.5-53.5 62.5l-16.5-1.5-3-75c-1.5-41-5.5-81-8.5-88-13-32-36-38-58.5-15.5-13 13-13.5 14.5-10.5 51 9 101 22.5 174 40 216.5 19.5 46 24 83.5 10.5 83.5-4 0-7.5-2.5-7.5-5.5 0-2.5-9-29-20-58.5-21-54.5-36-139.5-43.5-244.5l-3-41 18-18c14.5-14.5 21-17.5 39.5-17.5 47.5 0 59.5 24 63 124 1 39 4 71 6 71 2 0 13-22 25-48.5 27-62.5 39-82 64.5-109.5 31-32 66-40 92.5-20.5 17.5 13 11.5 32.5-34.5 113.5-61.5 107.5-84.5 168.5-95 250-5.5 42-21 87.5-48.5 142.5-37.5 75-57.5 101.5-90 118-25 13-44 12.5-44-0.5z"/><path class="b" d="m2556.5 1195c-8-2.5-17.5-7-21.5-10.5-9-7.5-9-32.5 0.5-59 4-11 9.5-34.5 12.5-52 9.5-54 10.5-58.5 18-58.5 11 0 9 42-5.5 98-7 27-12.5 50-12.5 51 0 1 8 5 17.5 9 36.5 15 56.5-12 74.5-99 8.5-42 10.5-184.5 3.5-266-3.5-37.5-6-46-15.5-54-14-11-37.5-11.5-58.5 0-17 9-81.5 69-81.5 75.5 0 9.5-24.5 25.5-38.5 25.5-18.5 0-19-1-26.5-60-3-23.5-9-47.5-13-54-7.5-11.5-26-21-40-21-14.5 0-45.5 35.5-72 82.5-15 27-31.5 50-36 51.5-5 1-9 5.5-9 9 0 4.5-6 7-17.5 7-22 0-25-10-21-68.5 2.5-37.5 2-43-6.5-51.5-5.5-5.5-13.5-10-17.5-10-4 0-7.5-4.5-7.5-10 0-11.5 6.5-12.5 28.5-5 22.5 8 27 23.5 23.5 78.5-4.5 61.5 0 60.5 40.5-10 35-61 48-77 71.5-87 21.5-9 57.5-4 74 10.5 9.5 8.5 13 19.5 19.5 62.5 4 28.5 8 53 9 53.5 1 1 19-17.5 40.5-41 45-49 75-67 111.5-67 57.5 0.5 61.5 11.5 65 180 2.5 108 1.5 134-5.5 169.5-12.5 61.5-28 105.5-40 113-14 9.5-47 13-64.5 7.5z"/><path class="b" d="m3373.5 1132c-14-17.5-14-37-0.5-37 5.5 0 10 3 10 7 0 13.5 13.5 19.5 29.5 13 32.5-13.5 35.5-21 39-104.5 3-71 3.5-75.5 13-75.5 10 0 10 2 6.5 81-4 93-5.5 97.5-43 116.5-31.5 16-41.5 15.5-54.5-0.5z"/><path class="b" d="m2138 1096c-20-20-25-52.5-25-156 0-86.5 0.5-90 10-90 9.5 0 10 3.5 10 86.5 0 61.5 2 95 7.5 116 4.5 16.5 9 30.5 10.5 32 1 1.5 10 2.5 19.5 2.5 26 0 39.5-16.5 75.5-92 62-130 57-122.5 78.5-124l18.5-1.5v22.5c0 25-11.5 32.5-17 12-1.5-7-4.5-9.5-7-6.5-2.5 3-20.5 40-40.5 82.5-19.5 42.5-41.5 86-48.5 96.5-22.5 34.5-67.5 44-92 19.5z"/><path class="b" d="m2334.5 1093c-13.5-12-14-13.5-14-61.5 0-59 5-86.5 15.5-86.5 6.5 0 7.5 7.5 4 56.5-3 55-3 57 9 70.5 10 12 14.5 13.5 27.5 11 24-5.5 40.5-26.5 61-78 25-61.5 69-149.5 82.5-163.5 7-7.5 16.5-11.5 28.5-11.5 17 0 18.5 1 21.5 19 5.5 35.5 3.5 71-4.5 71-4 0-8-7-10-17.5-1.5-9.5-3.5-25.5-5-35-2-11-5-16-9.5-14.5-8.5 3-62 107.5-85.5 167-10.5 26-23.5 53-29.5 59.5-24 27-68 33.5-91.5 13.5z"/><path fill-rule="evenodd" class="b" d="m3832 1051.5c-18.5-20-59-81.5-59-89.5 0-1.5-20-44.5-44.5-96-25-51.5-48-104-51-117-6-22-5.5-25 3.5-37.5 13-17.5 43-28 68-24 27.5 5 45 29 74.5 105 29 74 43 102.5 49 102.5 11 0 51-104 90.5-233.5 18-60.5 32-76.5 66.5-76.5 23 0 57 13.5 67.5 26.5 9 10.5 3.5 34.5-12 53-7 8.5-23.5 48.5-39 97-47 142-110 282.5-136 303q-13.5 10.5-34.5 10.5c-19 0-23.5-2.5-43.5-23.5zm60.5 0.5c8.5-2 15.5-6.5 15.5-10 0-4 10-27.5 22.5-52.5 33-65 75-171 100.5-254.5 15.5-50 26.5-76.5 35.5-86 16-16.5 12.5-27-11.5-37-25.5-10.5-47.5-6-56 12-3.5 7.5-16.5 47.5-29 88.5-26.5 86.5-39.5 121.5-61.5 169-16 32.5-16.5 33.5-35.5 33.5-23.5 0-26.5-4-57.5-82.5-32-82.5-50.5-115.5-67-122.5-16-6.5-33.5-1.5-47 13.5-8.5 9.5-8 11 4.5 39.5 12 28 39.5 85.5 90.5 191 20.5 41.5 65 101 76.5 101 2 0 11-1.5 19.5-3z"/><path class="b" d="m3365 969c2-34 7-90.5 10.5-126.5 9.5-88.5 18.5-227 15-233-4.5-7-8.5-6-64.5 16-56 22-70 22.5-88 4.5-14-14-13-40.5 2.5-59 14-16.5 71-42 127-57 25-6.5 63-10.5 109.5-12.5 70-3 71-3 71 8 0 10-2 10.5-57 10.5-32.5 0-72 3.5-91.5 7.5-70 15.5-151.5 55-151.5 73 0 2.5 4.5 9 10 14.5 10 10 10 10 36-0.5 80.5-32.5 105-36.5 114-19.5 6 11 0.5 106.5-15 272.5-5.5 58-10 118-10 134 0 25.5-1 28.5-10.5 28.5-10.5 0-10.5-1-7.5-61z"/><path class="b" d="m2558 970c0-21.5 1.5-25 10-25 8.5 0 10 3.5 10 25 0 21.5-1.5 25-10 25-8.5 0-10-3.5-10-25z"/><path class="b" d="m1428 924.5c0-12 6.5-23 29-47 47.5-52.5 79.5-113.5 93.5-181.5 20-94.5-8.5-201-77-287.5-60-75-142.5-122.5-242.5-138.5-57.5-9.5-132 4-192 34.5-11 5.5-28.5 10.5-38.5 10.5-14.5 0-17.5-2-17.5-10.5 0-7 2.5-9.5 7-8 3.5 1.5 11.5-0.5 17-4.5 32.5-23 126-46.5 184.5-47 61.5 0 144 22.5 200 55.5 37 22 109.5 94 131 130.5 37.5 64.5 55.5 128.5 55.5 200.5 0 103.5-38.5 200.5-109.5 274-14 14.5-25.5 28-25.5 30.5 0 2-3.5 4-7.5 4-5 0-7.5-5-7.5-15.5z"/><path class="b" d="m3458 887.5c0-24 1-27.5 10-27.5 8 0 10 3.5 10 16.5 0 23.5-5 38.5-13 38.5-5 0-7-7.5-7-27.5z"/><path class="b" d="m3464.5 801.5c3.5-50.5 14-136 24-190 5.5-31.5 5.5-31.5 22.5-31.5 18 0 25 13 8.5 16-9.5 2-22.5 69-31.5 166.5-7 77.5-9 87.5-18.5 87.5-7 0-7.5-6.5-5-48.5z"/><path class="b" d="m2113 791.5c0.5-32 28.5-71.5 51-71.5 14 0 10.5 12.5-8 31-10.5 10.5-18.5 24.5-20.5 35.5-2.5 13.5-6 18.5-13 18.5-7 0-9.5-3.5-9.5-13.5z"/><path class="b" d="m3563 585c0-7 3.5-10 11.5-10 6 0 21.5-3.5 34.5-8.5 26-9 37.5-25.5 29-41.5-7.5-14-6-25 3-25 12.5 0 21.5 15 22 35.5 0 23.5-22 46.5-52.5 54-34 8.5-47.5 7-47.5-4.5z"/><path class="b" d="m1221.5 544.5c-9.5-13.5-22.5-24-38.5-31-32-14-33.5-26-3-22.5 24 3 53 20.5 53 32 0 4 2.5 7 5 7 3 0 5 8 5 17.5 0 9.5-1.5 17.5-3.5 17.5-2.5-0.5-10.5-9.5-18-20.5z"/><path class="b" d="m1088 500c0-8.5 3.5-10 20-10 22.5 0 28.5 11.5 9 17-21 5.5-29 3.5-29-7z"/><path class="c" d="m1044.5 1476.5c-17.5-1.5-21.5-4-21.5-12 0-9.5 2-10 51.5-7 66.5 4.5 110-4.5 173.5-36 83-41 148.5-118 178.5-209 17.5-53.5 18.5-118.5 2.5-173-13.5-47-14.5-64.5-2-64.5 7 0 11.5 9.5 20.5 44 24.5 91.5 18 176-19 253.5-38.5 81-88 131-168 170-67 32.5-126.5 42-216 34z"/><path class="c" d="m744.5 1164c-8.5-4-11.5-10-11.5-22.5v-17.5l15.5 13c18 15.5 46 17.5 64.5 4.5 7-4.5 37.5-28.5 68.5-52.5 56.5-45 71.5-52 71.5-34 0 6.5-3.5 10-9.5 10-5 0-10.5 4.5-12 10-1.5 6-7 10-13 10-6 0-10.5 3-10.5 7.5 0 4.5-4.5 7.5-12.5 7.5-9 0-12.5 2.5-12.5 10 0 6.5-3.5 10-9.5 10-5 0-10.5 4.5-12 10-1.5 6-7 10-13 10-6 0-10.5 3-10.5 8 0 17.5-66.5 29-93.5 16z"/><path class="c" d="m1008 1055.5c0-9.5 5-10 87-11.5l87-1.5 19.5-15.5c12-10 22.5-24.5 29-41 11.5-30.5 22.5-34 22.5-8.5 0 23-16 54-34 67-22.5 15.5-52 20-134.5 20.5-72.5 0-76.5-0.5-76.5-9.5z"/><path class="c" d="m1579.5 1061c-19-3-36.5-25-36.5-46.5 0-53 68.5-70.5 93-23.5 19 37-13 77-56.5 70z"/><path class="c" d="m801 966c-24-8.5-37-21-21-21 4.5 0 8-3.5 8-8 0-5.5 2.5-7 9-4.5 4.5 2 16 6 25.5 8.5 19.5 5.5 30.5 15 30.5 26 0 10.5-20 10-52-1z"/><path class="c" d="m858 965c0-8.5 3.5-10 20-10 22.5 0 28.5 11.5 9 17-21 5.5-29 3.5-29-7z"/><path class="c" d="m923 947.5c0-7.5 6-17.5 15.5-26 42.5-37 55.5-58.5 64-103 11-61 40.5-57.5 30.5 3.5-8.5 52.5-35 93.5-78 122.5-28.5 18.5-32 19-32 3z"/><path class="c" d="m838 877.5c0-10 2.5-12.5 12.5-12.5 7 0 12.5-3 12.5-6.5 0-3.5 14.5-15 32.5-25 18-10.5 35.5-23 39-28.5 8.5-14.5 23.5-13 23.5 2 0 8.5-5.5 16.5-16 24.5-17.5 12.5-96.5 58.5-101.5 58.5-1.5 0-2.5-5.5-2.5-12.5z"/><path class="c" d="m914 172c-66-33.5-65-130 1.5-162 41-20 91.5-6.5 116.5 31.5 10.5 16 13.5 26 13 48 0 33.5-10 55-35 74-23 17.5-70 21.5-96 8.5z"/><path class="d" d="m2719.5 1295c-29.5-9.5-56-55-31.5-55 6 0 11 4.5 12.5 11.5 4.5 17.5 37 30.5 66 26.5 13-1.5 25-5.5 25.5-8 1-3 4-5 6.5-5 6 0 24.5-18.5 24.5-25 0-2.5 3-6.5 6.5-8.5 8-5.5 55.5-97 70.5-138 7-18 17-59 22.5-92 11-63.5 26-112.5 48-156.5 16-32.5 53-96.5 57-100 8-6.5 26.5-54.5 23-60-10.5-17-58.5 12-77 47-4 7-9 13-11.5 13-2 0-4 3.5-4 7.5 0 4-2 7.5-5 7.5-2.5 0-5 4.5-5 10 0 5.5-9 29-19.5 52.5-19.5 41.5-20 42.5-37.5 42.5-17.5 0-18-0.5-17.5-18.5 0-17 0.5-18 5-7 7 17.5 14.5 8 39.5-48.5 42-93.5 75.5-131 118.5-131 23 0 41.5 12.5 41.5 29 0 4.5-12.5 31-28 58.5-83 148.5-96.5 181.5-109 267-15.5 104-84 242.5-133 270-23 12.5-64.5 17.5-88.5 10.5z"/><path class="d" d="m2726.5 1202.5c-11-14-17.5-17.5-31-17.5-9.5 0-17.5-2-17.5-4 0-9 13-16 29-16 13.5 0 21 4 34 18l17 17.5 15-10.5c21-15 37.5-46.5 47-88.5 12.5-56.5 10.5-85.5-9-133-9-22.5-18-47.5-20-56-7.5-36.5-26.5-207.5-24.5-219 6-30.5 46.5-51 76-38.5 17.5 7 28.5 28 33.5 64 3 24.5 2.5 26-7.5 26-7 0-10.5-3-10.5-10 0-24-12-54.5-24-60-19.5-8.5-41 1.5-48 23.5-4 13 15 169 25 206.5 4 15 9 33.5 10.5 41.5 1.5 7.5 4.5 13.5 7 13.5 2.5 0 4.5 5.5 4.5 12 0 6.5 2.5 13 5.5 14 10 3.5 11 64 2.5 109-10.5 53-17.5 75-23.5 75-2.5 0-4.5 3.5-4.5 7.5 0 4.5-4.5 7.5-12.5 7.5-10 0-12.5 2.5-12.5 12.5 0 14-12.5 22.5-33.5 22.5-10 0-18-5-28-17.5z"/><path class="d" d="m2557 1191.5c-5-1-9-4.5-9-7 0-2.5-3-4.5-7-4.5-12.5 0-11.5-16.5 3-75 13-51 14.5-66.5 14.5-136 0-74.5 0.5-79 10-79 9 0 9.5 4 9.5 69.5 0 69.5-8.5 138-22.5 180-11.5 34-10.5 35.5 17 35.5 21 0 26.5-2 35-13 11.5-15 23-48.5 31.5-95.5 4.5-26 7.5-31.5 15.5-31.5 8.5 0 9.5 2.5 6.5 24-5 32.5-21.5 94-31 111.5-11 21.5-40.5 29.5-73 21z"/><path class="d" d="m3375 1129.5c-16.5-18-16.5-129.5 0-129.5 5 0 7 16.5 9.5 69 1 37.5 2 69 1.5 70-1 0.5-5.5-3.5-11-9.5z"/><path class="d" d="m3393 1131c0-6 9-13.5 25-21.5 13.5-6.5 25-15 25-18 0-3.5 4.5-6.5 10-6.5 23.5 0 5.5 29.5-28.5 47-21 10.5-31.5 10-31.5-1z"/><path class="d" d="m2138.5 1095.5c-5-5-12-21-15-35-7-34-7-35.5 4-35.5 7 0 10 5 12.5 20.5 2 11.5 8.5 25.5 15.5 32.5 7 7 12.5 15.5 12.5 19.5 0 10.5-18.5 9-29.5-2z"/><path class="d" d="m2173 1096c0-8 4-11.5 17.5-14 9.5-1.5 17.5-5.5 17.5-9 0-3 12-30 27-60.5 15-30 36.5-74.5 47.5-98.5 19.5-43.5 20-44 37.5-44 12.5 0 18 2 18 7.5 0 4 2.5 7.5 5 7.5 5.5 0 6.5 48 2 94.5-3 24.5-5 30.5-12 30.5-8 0-8.5-5.5-6.5-63.5 3.5-79.5 0-78-43.5 18.5-51 112-64.5 132-94 138-14 3-16 2-16-7z"/><path class="d" d="m2350 1100c-24-9.5-37.5-50-17-50 7.5 0 10 3.5 10 14.5 0 11.5 2.5 15 12.5 16.5 16.5 3.5 52.5-6.5 52.5-14 0-3.5 1.5-7 4-8 2-0.5 8-14 13-29 10.5-30 76-170.5 82-175 2-1.5 6-7 9-12.5 7-13 42-17.5 42-5.5 0 4.5 3.5 8 7.5 8 5.5 0 7.5 5.5 7.5 20 0 14.5-2 20-7.5 20-5 0-8.5-7-10.5-20-2-11-5-20-7-20-13 0-59 84-95.5 175-19 48-33 68-52 75-19.5 7.5-40 9.5-50.5 5z"/><path class="d" d="m3833 1046c-25.5-26-64.5-94-84.5-147-5-13-4-14 6.5-14 12 0 23 17 23 35 0 5.5 2 10 4 10 5.5 0 26 43 26 55 0 5.5 3.5 10 7.5 10 4 0 7.5 3 7.5 7 0 4 3.5 8 7.5 10 4.5 1.5 7.5 9 7.5 20 0 16.5 1 17 21.5 19.5 13 1 25.5-0.5 32.5-5 25.5-15.5 109.5-212 146-340 9-33 13.5-41.5 20.5-41.5 6.5 0 9.5-3.5 9.5-12 0-7 2.5-14 5-15.5 11-7 3.5-17-17.5-23-16-4.5-22.5-9.5-22.5-15.5 0-12.5 16.5-11.5 44 1.5 21.5 10.5 22 11.5 19.5 31-1.5 11.5-8 25-15.5 33-8.5 9-19.5 36-35 85.5-26.5 85.5-67.5 189.5-103 260-21.5 43-28 52-42.5 58-29 12-37.5 9-67.5-22z"/><path class="d" d="m3448 1040c0-26.5 1-30 10-30 8 0 10 3.5 10 19 0 26-5 41-13 41-5 0-7-8-7-30z"/><path class="d" d="m3368 954c0-19.5 6-34 13-34 5 0 7 6.5 7 22.5 0 19-1.5 22.5-10 22.5-7 0-10-3.5-10-11z"/><path class="d" d="m3453 941.5c0-13.5 1.5-46 3.5-72.5 2.5-44 4-49 12.5-49 9.5 0 10 2.5 6.5 59-4 72-6.5 86-15.5 86-5 0-7-6.5-7-23.5z"/><path class="d" d="m1426.5 876.5c-7.5-155-63.5-284.5-170.5-395.5-68.5-71-125-109.5-215-146.5-25-10.5-46-22-47-25.5-1-7.5 58.5-35 102-46.5 144.5-38 302.5 16 395 134 116.5 149 108.5 356-19 496-16 17.5-29 34-29 37 0 3-3 5.5-7 5.5-5 0-7-14-9.5-58.5z"/><path class="d" d="m3847 909c-12-21.5-25-51.5-40-91.5-21-57.5-49-107.5-60-107.5-5.5 0-9-3.5-9-10 0-11.5 8.5-12.5 27-4.5 15 7 38 50 68 128 12 30.5 26 61 30.5 67.5 9 11.5 9 11.5 16.5 1.5 14.5-19.5 47.5-106.5 73.5-191.5 27-88.5 39-111 59.5-111 14 0 13 16.5-1.5 24.5-10 5.5-17 23-41 101-16 52-31 94.5-33.5 94.5-2 0-4 4.5-4 10.5 0 16-20.5 59.5-28 59.5-4 0-7 5-7 12 0 22.5-5 28-25.5 28-14.5 0-20.5-2.5-25.5-11z"/><path class="d" d="m3373 899c0-15 6.5-29 13-29 4.5 0 7 6 7 17.5 0 14-2 17.5-10 17.5-5.5 0-10-3-10-6z"/><path class="d" d="m2116 869c-5.5-21-3-72 4.5-97.5 13-44.5 44.5-61 87-46 24 8.5 36.5 39.5 15.5 39.5-5.5 0-10-2-10-5 0-11-24.5-21-43.5-17.5-17.5 3-19.5 5-27.5 29.5-5.5 16.5-9 41.5-9 67 0 31.5-1.5 41-7 41-3.5 0-8-5-10-11z"/><path class="d" d="m2219.5 867c-9-4-8.5-37 0.5-37 4 0 8.5 6 10 13l3.5 13.5 11-11c6.5-5.5 23.5-32 38.5-58.5 15-26.5 36-55.5 46.5-65 21-19 38.5-22.5 38.5-7.5 0 10.5-9.5 15.5-28 15.5-10 0-12 2.5-12 15 0 8.5-2 15-5 15-2.5 0-5 3.5-5 7.5 0 4-4.5 7.5-10 7.5-7.5 0-10 3.5-10 14.5 0 19.5-4.5 30.5-13 30.5-4 0-7 5-7 12.5 0 7-1.5 12.5-4 12.5-2 0-6 5-8.5 11.5-3.5 8-9.5 11.5-22.5 12-9.5 0.5-20.5 0-23.5-1.5z"/><path class="d" d="m3729 860c-16-26-51-113-51-127.5 0-19 16-36 39-40.5 14-3 16-2 16 7 0 8-4 11.5-18 14l-18 3.5 3 25c2 13.5 7 28 11 32 3.5 4 7 15 7 24.5 0 11 2.5 17 6.5 17 9 0 18.5 21.5 18.5 40 0 17.5-5 19-14 5z"/><path class="d" d="m3378 849c0-24 5-39 13-39 5 0 7 7.5 7 27.5 0 24-1 27.5-10 27.5-8 0-10-3.5-10-16z"/><path class="d" d="m2434 851c-4-3-9.5-25-13.5-53.5-5.5-37.5-9.5-51.5-18-60.5-6-6.5-14-12-18-12-3.5 0-6.5-4.5-6.5-10 0-11 8-12.5 27-5 19.5 7 27 23.5 33 72.5 8 59.5 10 62.5 27 41.5 60-72.5 105.5-103 145.5-96.5 30 4 42.5 15.5 46 41.5 2.5 19 2 21-8 21-8 0-10.5-3-10.5-12 0-14-21-33-37-33-5.5 0-20.5 5.5-32.5 12.5-11.5 7-26 12.5-31 12.5-6 0-9.5 3.5-9.5 10 0 7.5-3.5 10-12 10-10.5 0-12.5 3-14 16.5-1 11-5 17.5-12.5 21-6 2.5-11.5 9.5-12.5 15-1 7.5-6 10.5-19 11.5-9.5 0.5-20.5-1-24-3z"/><path class="d" d="m2643 832.5c0-24.5 11.5-32 17-11 6 22 3.5 33.5-7 33.5-8.5 0-10-3.5-10-22.5z"/><path class="d" d="m2213 795c0-16.5 1.5-20 10-20 10.5 0 12.5 8 7 29-5.5 19.5-17 13.5-17-9z"/><path class="d" d="m3463 792.5c0-19 1.5-22.5 10-22.5 10.5 0 13 11.5 7 34-5.5 20.5-17 13-17-11.5z"/><path class="d" d="m3383 791.5c0-21.5 5.5-36.5 13-36.5 5 0 7 7 7 25 0 21.5-1.5 25-10 25-7.5 0-10-3.5-10-13.5z"/><path class="d" d="m3469.5 730c1.5-19.5 7-60 11.5-90l9-55h16.5c9 0 16.5 2.5 16.5 5 0 3-3 5-7 5-7.5 0-14 29-23 100-8 62-10 70-18.5 70-7 0-7.5-5.5-5-35z"/><path class="d" d="m3388 731.5c0-17 6-31.5 13-31.5 5 0 7 6.5 7 20 0 16.5-1.5 20-10 20-6 0-10-3.5-10-8.5z"/><path class="d" d="m3394 641.5c2-46.5 2-47-72.5-17-21.5 8.5-45.5 15.5-53.5 15.5-14.5 0-35-14.5-35-25 0-6.5 23.5-6.5 27.5 0.5 4.5 7 42 0.5 51.5-8.5 3.5-4 15.5-8.5 26.5-10 10.5-2 19.5-5 19.5-7.5 0-2.5 11-4.5 24.5-4.5 29 0 30.5 2.5 30.5 50.5 0 31.5-1 34.5-10.5 34.5-9 0-10-2.5-8.5-28.5z"/><path class="d" d="m3233 590.5c0-5 5.5-14.5 12.5-21.5 22.5-22.5 144-64 188-64 11 0 14.5 2.5 14.5 10 0 8-3.5 10-16 10-19.5 0-78 15-106 27-10.5 4.5-23.5 8-28.5 8-5.5 0-9.5 2-9.5 4.5 0 2.5-5 6.5-11 8.5-13 4-24 14-24 21.5 0 3-4.5 5.5-10 5.5-6.5 0-10-3.5-10-9.5z"/><path class="d" d="m3558 586.5c0-7.5 6.5-11 31-16 19.5-4 33.5-10 38-16 6-8.5 31-14 31-6.5 0 18.5-34.5 38.5-76 44.5-21.5 2.5-24 2-24-6z"/><path class="d" d="m3636 527.5c-2-6-13.5-7.5-60.5-7.5-45.5 0-57.5-1.5-57.5-7 0-10 16.5-13 76-13 48 0 54 1 59 9.5 2.5 5.5 5 13.5 5 17.5 0 10-18 10.5-22 0.5z"/><path class="e" d="m1033 1462.5c0-7.5 5-12.5 19-17 90.5-32 212-133 274-228.5 43.5-66.5 81-155.5 89.5-214 3-17.5 6-23 12.5-23 5.5 0 9 4 9 11.5 0 6 4 24.5 9 41 7 23 9.5 45 9 92.5 0 53.5-2 68-13.5 102.5-19 57.5-45 99-91 145-32.5 33-49 45-87.5 64-60.5 30-105.5 39.5-176 37.5-51-1-54-2-54-11.5z"/><path class="f" d="m1392 946.5c-27.5-47-84-99.5-132.5-123l-21.5-10.5v-120c0-111.5-0.5-121.5-10.5-141.5-15-31.5-35-43.5-74.5-45.5-18-1-45.5 0.5-61 3l-28.5 4.5-18.5-30.5c-10.5-17-41-52.5-68-79.5-41.5-42-49-52-49-65.5 0-13.5 4-19 22-32l22-16 39.5 13c94 30.5 169 75 238.5 142 77.5 74 131.5 158.5 162.5 253.5 21.5 67 27.5 107.5 28 186.5v72.5l-20 1.5c-17.5 1.5-21-0.5-28.5-12.5z"/><path class="g" d="m980.5 1478c-31.5-10-89-40.5-106.5-57-8.5-8-19-16-22.5-17.5-10-3.5-49.5-51.5-68-81.5-20.5-33.5-40.5-88-40.5-109.5 0-16.5 1-17.5 16.5-17.5 15.5 0 17.5 2 23.5 21.5 8 27.5 30 70.5 51 99 18 25.5 52.5 64.5 56.5 64.5 1.5 0 13 7.5 26 17 33 23 70 41 106 51 17 5 30.5 10.5 30.5 13 0 4.5-22 15-42.5 20.5-5.5 1.5-19 0-30-3.5z"/><path class="g" d="m720 1137.5c-3.5-9.5-7-29.5-7-44.5v-27l-93.5-2c-89.5-1.5-95-2-116.5-14-25.5-14.5-45-44-45-68.5 0-22 11-21.5 19 0.5 9.5 25.5 25.5 43 48 53.5 17.5 8 34 9.5 114.5 9.5h93.5v36.5c0 36.5 6 52 25 67 6 5 4.5 6-11.5 6.5-17 0-20-2-26.5-17.5z"/><path class="g" d="m1409 982.5c-7-15.5-8-47.5-1.5-47.5 2.5 0 5.5 3 7 6.5 1.5 4 5 3.5 13-3.5 15-13.5 18-7.5 12.5 25.5-3.5 23.5-6.5 29.5-15 30.5-7 1-12-2.5-16-11.5z"/><path class="g" d="m209.5 961.5c-3-10.5-13.5-41.5-23.5-69-93.5-265 64-558 339.5-630.5 42.5-11.5 60.5-13.5 120-13.5 67.5-0.5 84 2 159 22 11 3 18.5 8 18.5 12.5 0 10-29 8-85-5.5-47.5-11.5-129.5-12-178.5-1-89.5 20-178 70-243 138-76 79.5-119.5 170-133 278-8 60 1.5 124.5 29 202.5 23 63 25.5 85 11.5 85-6 0-11-6-14.5-18.5z"/><path class="g" d="m775 955.5c-79-35.5-119-141-87-227.5 15-39.5 58-82.5 98-98.5 44-17 104.5-16.5 142.5 1 39 18.5 66.5 45 84.5 81.5 17 34.5 24.5 68 15.5 68-3 0-5.5 3.5-5.5 7.5 0 4-3 7.5-7 7.5-5 0-9.5-10-13-28.5-10-48-36.5-81.5-82.5-105.5-34-18-99-19-130-2.5-114 61-112.5 215.5 2.5 272 25 12 33 24.5 15.5 24.5-5.5 0-10.5 2-11.5 5-1 2.5-10.5 0.5-22-4.5z"/><path class="g" d="m15 923c-29.5-25-11-73 28-73 39 0 57.5 48 28 73-7.5 6.5-20 12-28 12-8 0-20.5-5.5-28-12z"/><path fill-rule="evenodd" class="g" d="m797 885c-20-15.5-25.5-40.5-23-104.5 1.5-51.5 2.5-56.5 14.5-68 23-23.5 41-21.5 97 10 27.5 16 55 34 61.5 41 11 12.5 15 31.5 6 31.5-2.5 0-5 5.5-5 12.5 0 9.5-5.5 16.5-23.5 27.5-13 8.5-26.5 15-30 15-3.5 0-6.5 2-6.5 4.5 0 2.5-4 6-9.5 8-5 1.5-15.5 8.5-23 15.5-19.5 18-41.5 20.5-58.5 7zm79-47.5c51.5-30.5 61.5-42 48-54-13.5-12.5-96-58.5-104.5-58.5-4 0-10 7-13 15-3 8.5-7.5 15-9.5 15-2 0-4 19-4 42.5 0 25 2 42.5 5 42.5 3 0 5 3 5 6.5 0 8.5 10 18.5 19 18.5 4 0 28-12.5 54-27.5z"/><path class="g" d="m458 642.5c0-36.5 28.5-73 64.5-82 10-2.5 126-17.5 258-33 132-15.5 247.5-29 256.5-31 16-2.5 22.5-11.5 8.5-11.5-4 0-7.5-3.5-7.5-7.5 0-4-2-7.5-5-7.5-2.5 0-5-4.5-5-10 0-5.5-3.5-10-7.5-10-5 0-7.5-5.5-7.5-17.5 0-9.5 2-17.5 4-17.5 5.5 0 44.5 52.5 56.5 76l9.5 18.5-16.5 3c-8.5 1.5-130.5 16-271 32.5-140 16.5-261 32.5-269 35.5-19 8-42 35.5-49 59.5-7.5 25.5-19.5 26.5-19.5 2.5z"/><path class="g" d="m933 352.5c0-9.5 1-17.5 2-17.5 3.5 0 33 29 33 32 0 1.5-8 3-17.5 3-16.5 0-17.5-1-17.5-17.5z"/><path class="g" d="m958 310c0-14 1.5-15 17.5-15 22 0 22 4.5 0 19l-17.5 11z"/><path class="h" d="m744 1504.5c-229-29.5-429.5-195-503-415.5-16-47.5-30-112-26-122 1.5-4 1-7-1-7-2 0-4-4.5-4-10 0-6 3.5-10 8.5-10 9 0 16 17 22 52.5 1.5 11 8.5 38.5 15.5 61.5 91 303.5 415 495.5 704.5 418 66.5-17.5 87.5-20 87.5-10.5 0 10-69 32-129 41-52 8-124 9-175 2z"/><path fill-rule="evenodd" class="h" d="m1418 982.5c0-12-2.5-17.5-7.5-17.5-5.5 0-7.5-5.5-7.5-18.5 0.5-17 1-18 7-10 6.5 8.5 23 7 23-2 0-2.5 2.5-4.5 5.5-4.5 6 0 3 44.5-3.5 62-6 15-17 9-17-9.5zm8-21c-4-7.5-7.5-12.5-8-10.5 0 6 11.5 29 13.5 27 1.5-1-1-8.5-5.5-16.5z"/><path class="h" d="m1751.5 930c-61.5-19.5-90-97.5-55.5-153.5 17.5-29 57-51.5 89-51.5 31 0 70 20.5 86.5 45.5 20 30 22 78 5.5 109.5-17.5 32.5-45.5 50.5-82 53-16 1-36-0.5-43.5-3z"/><path class="h" d="m923 338c0-12 3.5-19.5 10-24.5 9.5-6.5 7.5-7.5-27.5-13-21-3-47.5-5.5-59.5-5.5-31 0-53-5-53-13 0-9 10-10 72-6 58.5 3.5 128 16.5 128 24.5 0 2.5-2 4.5-4 4.5-2.5 0-13.5 7-25 16-15 11.5-20 18.5-18 25 2 7 0 9-10 9-11.5 0-13-2-13-17z"/><path class="i" d="m1211 1024.5c25-28 27-38 27-139.5v-95.5l34 17.5c62 33 114.5 83.5 141.5 136.5 6.5 13 9.5 16 10 9 0-5.5 1.5-7.5 2.5-4 5.5 12.5-10 27-49.5 46-48 24-86.5 34.5-138.5 39l-37.5 3z"/><path class="i" d="m1048 487.5c0-4-2-7.5-5-7.5-2.5 0-5-3.5-5-7.5 0-4-2-7.5-5-7.5-2.5 0-5-5.5-5-12.5 0-9-2.5-12.5-10-12.5-8 0-10-3.5-10-18.5 0-17.5 0-18 10-9 5.5 5 10 11.5 10 14.5 0 3 4.5 8.5 10 12 6 3.5 9 8.5 7.5 10.5-1 2.5 1 6 5.5 7.5 4.5 2 7 4.5 5.5 6-1.5 1.5 1.5 7 7 12.5 5.5 5.5 8.5 12 7 14.5-5 8-22.5 6-22.5-2.5z"/><path class="i" d="m943.5 359c0-9 1.5-13.5 3-10 1 3 5 6 8.5 6 3.5 0 10.5 4.5 15.5 10 9 10 8.5 10-9 10-17.5 0-18.5-1-18-16z"/><path fill-rule="evenodd" class="j" d="m961.5 1468c-108.5-44.5-187-134.5-216-245.5-7-28.5-10.5-82.5-5-82.5 12.5 0 31.5 16.5 34.5 30 3.5 19 6 18.5 67-10 46.5-22 76-41 111.5-73 26-23 25-25-11.5-19-14 2.5-19 5.5-19 12.5 0 6-3.5 9.5-9.5 9.5-5 0-10.5 4.5-12 10-1.5 5.5-7 10-12.5 10-5.5 0-11 4.5-12.5 10-1.5 5.5-7 10-12.5 10-5.5 0-11 4.5-12.5 10-2 7.5-7 10-20.5 10-14.5 0-18 2-18 10 0 8-3.5 10-17.5 10-22 0-24-13-3-17.5 8-1.5 44.5-26.5 81-55.5l66.5-52.5 98 3.5c104 3.5 140 0 164.5-17.5 7-5 29-12 48-15 58.5-10 121.5-34 152-59l12.5-10 10.5 20.5c9.5 19 10 23 4.5 53-35 193.5-202 388-384 447-47.5 15.5-48.5 15.5-84.5 1zm-93.5-79.5c0-1-8.5-9.5-18.5-19l-19-17 17 19c16.5 17 20.5 21 20.5 17zm-48-57c-17-23-25-32-19.5-21.5 6.5 12 27.5 40 30.5 40 1.5 0-3.5-8.5-11-18.5zm-30.5-49c-4.5-9.5-9-16.5-10.5-15.5-2 2.5 13 33 16.5 33 1.5 0-1.5-8-6-17.5z"/><path class="j" d="m832 971.5c-5-1-9-4.5-9-7 0-11.5 15.5-19.5 38.5-19.5 14 0 36.5-5.5 54-12.5 16.5-7 30.5-12.5 31.5-12.5 0.5 0 1 6.5 1 14.5 0 11.5-3.5 16-17 22.5-29 13.5-76 20.5-99 14.5z"/><path class="j" d="m1425.5 960c-2-5.5 0-14.5 4.5-21 8-11 8-10.5 8 10 0 22-7 28-12.5 11z"/><path class="j" d="m784.5 959c-24-11.5-10-30 16-22 13 4 17.5 8 17.5 16.5 0 13-14 15-33.5 5.5z"/><path class="j" d="m824 880c1-7 18.5-20.5 54-41.5 39-23 53-34 54-42 2.5-16.5 26-16.5 26 0 0 19-12.5 31-65.5 63-53.5 32.5-71.5 37.5-68.5 20.5z"/><path class="j" d="m1007 777.5c-2-17-1-18 10.5-16.5 10.5 1 13.5 4.5 14.5 18 1.5 14 0 16-10.5 16-10.5 0-12.5-3-14.5-17.5z"/><path class="j" d="m1051 499c-4.5-6-8-14-8-17.5 0-3.5-2-6.5-5-6.5-2.5 0-5-3-5-7 0-4-3.5-8-7.5-10-4-1.5-7.5-7.5-7.5-13 0-5.5-2.5-10-6-10-8 0-64-55.5-64-63 0-3.5-5-7-11-8-9.5-1-12-5-13-20-1-14.5 0-19 6-19 4.5 0 8-3.5 8-7.5 0-5 5.5-7.5 17.5-7.5 17 0 17 0.5 8.5 9-4.5 5.5-10 8.5-11.5 8-2-1-6 1-9 4.5-4 5-3 9 3.5 14.5 11.5 10 80.5 79.5 89 89.5 4 4.5 7 10.5 7 13.5 0 3.5 2.5 6 5 6 3 0 5 2.5 5 5 0 3 4.5 10 10 16 5 6 8.5 12.5 7 15-1.5 2-0.5 4 2 4 3 0 6 3.5 8 7.5 4.5 12.5-20 9-29-3.5z"/><path fill-rule="evenodd" class="k" d="m746.5 1211.5c-1.5-8-4.5-28-6.5-45.5l-3.5-31.5 17 10c32.5 20 43 15.5 124-49l56.5-45.5h84.5l-10 13c-40.5 51.5-131 110-208 135l-35 11-3.5-10.5c-2.5-7.5-3.5-5-2.5 8 1.5 22-9 26-13 5zm10-50c-1.5-5-2.5-1-2.5 8.5 0 9.5 1 13.5 2.5 9 1-5 1-13 0-17.5z"/><path class="k" d="m826 969.5c-29-4.5-34.5-9-26-20.5 5.5-7.5 10-8.5 31-4.5 92 17.5 177-57.5 177-155 0-28.5 0.5-30 11.5-28.5 9.5 1.5 11 5 12.5 29 6 108.5-94.5 196.5-206 179.5z"/><path class="k" d="m780 953.5c-3.5-10 1.5-18.5 11-18.5 9 0 9 12-0.5 20-6 5-8 4.5-10.5-1.5z"/><path class="k" d="m833 878.5c0-12 18-26 67.5-53 3-1.5-7.5 9.5-23 24.5-28 27.5-28 27.5-2.5 5.5 14-12 29.5-27 34.5-32.5 5-6 8-7.5 6-4-3 5.5-1.5 6 7 1.5 5.5-3.5 10.5-7 10.5-8.5 0-1.5-2-1.5-4.5 0.5-2.5 1.5-1.5-4 2.5-12.5 9.5-19 27-20.5 27-3 0 7-5 18-11 25-11.5 12.5-99 65.5-99 59.5 0-1.5-3.5 0-7.5 3.5-6.5 5.5-7.5 4-7.5-6.5z"/><path class="l" d="m722.5 1497c-252-45.5-454.5-248-499-499-7-38.5-7-38 4-38 6 0 14.5 8 22 21.5 57 96 174 181.5 288.5 210.5 78.5 19.5 125 21 202.5 5.5 14.5-3 15-2.5 21 22 15 62.5 61.5 134 116 177.5 37 30 92.5 59.5 128.5 68.5l24.5 6.5-30 9c-79 24-197 31-278 16z"/><path class="l" d="m1425.5 959.5c-2.5-7-0.5-13.5 4.5-18.5 7.5-7.5 8-6.5 8 10.5 0 20-7.5 25-12.5 8z"/><path class="l" d="m890.5 334.5c-16.5-10.5-43-24.5-58.5-30.5-20-8-29-14-29-20 0-8 4.5-8.5 41.5-6 51 3.5 129.5 16 135 21.5 2.5 2.5-6 11.5-18.5 20-24.5 17-26.5 20-17 29.5 4.5 4.5 2.5 6-8.5 5.5-8.5 0-28.5-9-45-20z"/><path class="m" d="m602 1221.5c-16.5-4-10-16.5 8.5-16.5 14 0 17.5 2 17.5 10 0 10-7 11.5-26 6.5z"/><path class="m" d="m668 1215c0-8 3.5-10 17.5-10 20 0 24.5 12 6.5 17-19 5-24 3.5-24-7z"/><path class="m" d="m463.5 1188.5c-33-13.5-38.5-23.5-13.5-23.5 10 0 18 2.5 18 5 0 3 5.5 5 12.5 5 10 0 12.5 2.5 12.5 12.5 0 7-0.5 12.5-1 12.5-1-0.5-13.5-5.5-28.5-11.5z"/><path class="m" d="m407 1161c-18.5-11-17.5-16 3.5-16 15.5 0 17.5 1.5 17.5 12.5 0 14.5-3 15-21 3.5z"/><path class="m" d="m221.5 974c-21-45-48.5-140-54-188-10-85.5 7.5-185.5 47-263.5 53.5-106.5 145-192.5 251-235.5 103-42 198.5-47 324-16 57 14 58 23 2.5 23-69.5-0.5-174 30-251.5 73-77.5 43.5-162.5 121.5-209.5 192.5-31 46-70 129-83 175.5-12.5 45.5-25 123.5-25 158 0 14 3.5 35.5 7.5 47 8.5 23.5 10 50 3 50-2.5 0-8-7.5-12-16z"/><path class="m" d="m918 345c0-8 2-15 4-15 2.5 0 10.5 7 18.5 15l14.5 15h-18.5c-17 0-18.5-1-18.5-15z"/><path class="m" d="m868 312.5c0-15 1.5-15 20.5-4 19 11.5 18.5 16.5-3 16.5-15.5 0-17.5-1.5-17.5-12.5z"/><path class="n" d="m2706 1285.5c-22-14.5-27.5-29-28-71.5 0-33 1.5-39.5 9.5-44 18-9.5 31.5-5.5 51 15l19 20 17.5-15.5c27-23.5 37-44 48.5-97.5 11.5-57 10.5-71.5-10.5-122.5-8.5-20.5-17.5-47-20.5-59.5-6.5-33-24.5-179-24.5-203 0-59.5 79-75 99-19.5 4 11 8.5 50.5 10.5 89.5 2 49.5 5 70.5 9.5 72 4 1 13-13 24-37.5 37-81 44.5-94 69-119.5 30-30.5 58.5-39.5 80.5-25 22 14.5 16.5 33.5-34.5 119.5-54.5 92-73.5 141-88.5 230-11 67-23.5 103.5-57.5 169-29 56-55.5 90.5-78.5 101-25 12-76.5 11.5-95.5-1z"/><path class="n" d="m2560 1190.5c-8.5-2-18-5.5-21-7.5-8-5-7.5-32.5 1-57 16.5-45.5 24.5-120.5 21.5-191-3.5-74.5-6.5-90-16-90-4 0-11.5 7-17.5 15-13 18-74.5 147-87.5 182.5-5 14-12.5 29-17 34.5-18.5 21.5-63.5 30-84 15.5-15.5-11-19-44.5-11.5-115.5 6-59 4-92-5.5-92-3 0-14 19.5-25 44-44.5 96.5-77 157.5-88 164.5-6.5 4.5-21.5 9-33.5 10-19 2.5-24 1-34.5-9.5-19.5-19.5-23.5-52.5-23.5-190.5 0-121 0.5-127.5 11.5-148.5 13-27 35.5-37 66-30 32 7 35 13.5 35 74 0 66.5 5.5 69 37 16 59.5-101 71-112 112-108.5 38 3.5 47.5 16 56 75.5 3.5 27 9 51.5 12 54.5 4 4 10 0 22-14 34.5-43 59.5-66.5 84.5-80 46.5-25.5 91.5-15 100.5 23 2 9.5 5 73.5 7 142 2.5 117 2 128.5-8 177.5-12 55-24 88.5-36 98.5-10 8-39 11.5-57.5 7z"/><path class="n" d="m3376 1129c-6.5-9-8-26.5-7.5-89 0-42.5 2-96.5 4.5-120 11-105 25-298.5 22.5-308.5-3.5-15-8.5-14.5-59 5.5-59.5 24-73 26-90 13-16.5-13-18-37.5-3.5-56.5 11-14 68.5-39.5 122.5-55 29-8 56.5-10 157-12 114-2.5 122.5-2 129 6.5 11 15 8 38.5-7 53-17 16-46 24.5-99 28.5l-39.5 3-8.5 51c-13 78-24.5 201.5-30 326.5-2.5 62-5.5 117.5-7 123.5-3 13-48.5 41.5-66 41.5-6 0-14.5-5-18.5-11z"/><path class="n" d="m3854.5 1065.5c-27.5-17.5-54.5-60-111-178.5-64-134-71-155-59-174 18-27 74.5-29.5 92.5-4 14.5 20 33 59 48 101 16.5 46 39 91 46 93.5 11.5 4 53-99.5 94.5-234.5 22-72 31-81.5 71.5-77.5 14.5 1.5 33.5 7 42.5 12.5 13.5 8 16 12 14.5 26.5-0.5 9.5-7.5 25-16 35-9 11-19.5 35.5-27 62.5-37.5 129-118.5 317.5-144 334-20 13-35.5 14-52.5 3.5z"/><path class="o" d="m736 1204c-1.5-6.5-3-26-3-44 0-32 0-32 9.5-22.5 13.5 13.5 17 74 5 76.5-5 1-9.5-3-11.5-10z"/><path class="o" d="m776.5 954.5c-9.5-5.5-10.5-9-4-19 5-8 25.5-3 25.5 6.5 0 11-11.5 18-21.5 12.5z"/><path class="o" d="m818 880.5c0-6 7-13 19-19 10-5 30-16 43.5-24l25-15-35 33.5c-35.5 34-52.5 42-52.5 24.5z"/><path class="o" d="m929 805.5c9.5-15 2-23-47-51.5-59.5-35-62-36-73.5-24.5-9 9-9.5 9-12.5-6-6.5-33.5 28-32.5 89 2.5 74 42 89.5 64.5 55.5 80.5-17 8-17.5 8-11.5-1z"/><path class="o" d="m1005 763c-8.5-40-43.5-85.5-80.5-105-33-17-91-19.5-127.5-5.5-7 3-9 1-9-9 0-16.5 24-25 69.5-24.5 68 0.5 130.5 40.5 157 100 19.5 45 20.5 54.5 6 57-10 2-12.5 0-15.5-13z"/><path class="o" d="m805 516.5c6.5-47 67-149.5 106-178 14-11 8-14.5 76 49 32 30.5 95.5 114.5 90.5 120-2.5 2-251.5 32.5-266.5 32.5-8 0-9-3-6-23.5z"/><path class="p" d="m598 1222c-132-16-252-81.5-331-181-56.5-71-67.5-115-54-219 24.5-195 132.5-361.5 300.5-462.5 71.5-42.5 173.5-76 254.5-82.5 44.5-3.5 73 4.5 129.5 37.5 34 20 43.5 32.5 28.5 38.5-11 4-55.5 62-74.5 97-10 18-21.5 45-26.5 60-4.5 15-9 28-9.5 29-0.5 0.5-64 9-141 18-138.5 17-160 22-177 41-24 27.5-24.5 31.5-24.5 213 0 169 0.5 172 11.5 191.5 7 12 20 25 33.5 32.5 21.5 12 27 12.5 116.5 14l93.5 2v28c0 17 3.5 36 9.5 48 5 11.5 10.5 32 12 45.5 1.5 14 3.5 28.5 4.5 32 1 4.5-5 8.5-16 11-21.5 5-116.5 9.5-140 6.5z"/><path class="p" d="m755 940.5c-27-19-46-43-61.5-75.5-11-23-13-34.5-13-70 0-36 2-47 14-72.5 20-43 55-77 95-92 12.5-5 13.5-4.5 13.5 7 0 9-5 15-18.5 22-24.5 12.5-52.5 42-67 70.5-17 32.5-17 98-0.5 130 15 28 32.5 47.5 59 64.5 18 11.5 20 14.5 14.5 22-8.5 11.5-13 11-35.5-6z"/><path class="p" d="m799 886.5c-15.5-6-21-30.5-21-95.5 0-62 0.5-65 12.5-78 7-7.5 15-12 17.5-10.5 6.5 4 6.5 19 0 25.5-3.5 3.5-5 30.5-4 70l1.5 64.5 14 1.5c8 1 21-3 31-9 23-14 22-6.5-1.5 16.5-18 17.5-32.5 22-50 15z"/></svg>