<svg class="img-fluid" id="outputsvg" xmlns="http://www.w3.org/2000/svg" style="transform: matrix(1, 0, 0, 1, 0, 0); transform-origin: 50% 50%; cursor: move; max-height: none; transition: transform 200ms ease-in-out 0s;" width="934" height="386" viewBox="0 0 9340 3860"><g id="l1awxV39TLA9bETIrzMKoNP" fill="none" style="transform: none;"><g style="transform: none;"><path id="p13IR66pFW" fill="rgb(255,255,255)" d="M1909 2591 c-27 -27 -29 -35 -29 -105 l0 -76 -185 0 c-232 0 -270 -12 -316 -102 -18 -34 -19 -64 -19 -393 0 -299 2 -362 16 -393 18 -45 57 -87 93 -101 35 -14 1191 -151 1275 -151 80 0 132 23 173 77 l28 36 3 439 c2 414 2 441 -17 482 -10 24 -36 56 -57 72 l-37 29 -245 3 -245 3 -111 88 c-160 126 -151 121 -229 121 -62 0 -71 -3 -98 -29z"></path></g></g><g id="l3mX117Pz6ig05g0YCNBwBE" fill="rgb(252,192,114)" style="transform: none;"><g style="transform: none;"><path id="psm6trag4" d="M850 3202 c-107 -53 -73 -202 47 -202 63 0 103 40 103 102 0 52 -21 85 -66 104 -42 18 -42 18 -84 -4z"></path><path id="p18W2zNRDW" d="M5863 2875 c-52 -22 -73 -67 -73 -157 0 -68 3 -79 22 -92 12 -9 31 -16 41 -16 30 0 76 28 90 56 l14 26 35 -31 c42 -36 73 -97 83 -161 13 -86 27 -130 41 -130 35 0 -3 209 -51 281 -15 23 -35 44 -46 46 -10 3 -19 9 -19 14 0 5 -15 9 -33 9 -25 0 -43 -9 -71 -36 -48 -47 -66 -35 -66 43 0 49 4 59 34 89 19 19 43 34 55 34 14 0 21 6 21 20 0 24 -29 26 -77 5z"></path><path id="pngLA73Nw" d="M5960 2870 c0 -11 7 -20 15 -20 19 0 104 -43 105 -52 0 -5 15 -29 34 -55 84 -118 160 -308 182 -454 25 -168 56 -248 193 -489 39 -68 71 -128 71 -132 0 -5 -11 -13 -24 -19 -20 -10 -31 -8 -59 10 -19 11 -42 21 -51 21 -9 0 -16 8 -16 19 0 11 -13 39 -28 63 -16 24 -46 83 -67 131 -49 112 -64 129 -107 125 l-33 -3 -6 -150 c-3 -82 -11 -162 -17 -176 -26 -64 -72 -76 -117 -31 -26 26 -27 29 -21 102 18 202 45 348 80 433 39 92 48 167 21 167 -8 0 -15 -5 -15 -11 0 -5 -18 -58 -40 -117 -42 -109 -72 -279 -87 -489 l-6 -82 36 -36 c29 -29 42 -35 79 -35 95 0 119 48 126 248 2 78 8 142 12 142 4 0 26 -44 50 -97 54 -125 78 -164 129 -219 62 -64 132 -80 185 -41 35 26 23 65 -69 227 -123 215 -169 337 -190 500 -11 84 -42 175 -97 285 -75 150 -115 203 -180 236 -50 26 -88 25 -88 -1z"></path><path id="pr8gjNbBm" d="M5557 2680 c-16 -5 -35 -14 -43 -21 -18 -15 -18 -65 1 -118 8 -22 19 -69 25 -104 19 -108 21 -117 36 -117 22 0 18 84 -11 196 -14 54 -25 100 -25 102 0 2 16 10 35 18 73 30 113 -24 149 -198 17 -84 21 -369 7 -532 -7 -75 -12 -92 -31 -108 -28 -22 -75 -23 -117 0 -34 18 -163 138 -163 151 0 19 -49 51 -77 51 -37 0 -38 -2 -53 -120 -6 -47 -18 -95 -26 -108 -15 -23 -52 -42 -80 -42 -29 0 -91 71 -144 165 -30 54 -63 100 -72 103 -10 2 -18 11 -18 18 0 9 -12 14 -35 14 -44 0 -50 -20 -42 -137 5 -75 4 -86 -13 -103 -11 -11 -27 -20 -35 -20 -8 0 -15 -9 -15 -20 0 -23 13 -25 57 -10 45 16 54 47 47 157 -9 123 0 121 81 -20 70 -122 96 -154 143 -174 43 -18 115 -8 148 21 19 17 26 39 39 125 8 57 16 106 18 107 2 2 38 -35 81 -82 90 -98 150 -134 223 -134 115 1 123 23 130 360 5 216 3 268 -11 339 -25 123 -56 211 -80 226 -28 19 -94 26 -129 15z"></path><path id="p7E2r78kA" d="M7191 2554 c-28 -35 -28 -74 -1 -74 11 0 20 6 20 14 0 27 27 39 59 26 65 -27 71 -42 78 -209 6 -142 7 -151 26 -151 20 0 20 4 13 162 -8 186 -11 195 -86 233 -63 32 -83 31 -109 -1z"></path><path id="pKSctB1ar" d="M4720 2482 c-40 -40 -50 -105 -50 -312 0 -173 1 -180 20 -180 19 0 20 7 20 173 0 123 4 190 15 232 9 33 18 61 21 64 2 3 20 5 39 5 52 0 79 -33 151 -184 124 -260 114 -245 157 -248 l37 -3 0 45 c0 50 -23 65 -34 24 -3 -14 -9 -19 -14 -13 -5 6 -41 80 -81 165 -39 85 -83 172 -97 193 -45 69 -135 88 -184 39z"></path><path id="pQCECzUYA" d="M5113 2476 c-27 -24 -28 -27 -28 -123 0 -118 10 -173 31 -173 13 0 15 15 8 113 -6 110 -6 114 18 141 20 24 29 27 55 22 48 -11 81 -53 122 -156 50 -123 138 -299 165 -327 14 -15 33 -23 57 -23 34 0 37 2 43 38 11 71 7 142 -9 142 -8 0 -16 -14 -20 -35 -3 -19 -7 -51 -10 -70 -4 -22 -10 -32 -19 -29 -17 6 -124 215 -171 334 -21 52 -47 106 -59 119 -48 54 -136 67 -183 27z"></path><path id="pRXaRsGTF" d="M8108 2393 c-37 -40 -118 -163 -118 -179 0 -3 -40 -89 -89 -192 -50 -103 -96 -208 -102 -234 -12 -44 -11 -50 7 -75 26 -35 86 -56 136 -48 55 10 90 58 149 210 58 148 86 205 98 205 22 0 102 -208 181 -467 36 -121 64 -153 133 -153 46 0 114 27 135 53 18 21 7 69 -24 106 -14 17 -47 97 -78 194 -94 284 -220 565 -272 606 -18 14 -41 21 -69 21 -38 0 -47 -5 -87 -47z m121 1 c17 -4 31 -13 31 -20 0 -8 20 -55 45 -105 66 -130 150 -342 201 -509 31 -100 53 -153 71 -172 32 -33 25 -54 -23 -74 -51 -21 -95 -12 -112 24 -7 15 -33 95 -58 177 -53 173 -79 243 -123 338 -32 65 -33 67 -71 67 -47 0 -53 -8 -115 -165 -64 -165 -101 -231 -134 -245 -32 -13 -67 -3 -94 27 -17 19 -16 22 9 79 24 56 79 171 181 382 41 83 130 202 153 202 4 0 22 -3 39 -6z"></path><path id="pfbkj9s6u" d="M7174 2228 c4 -68 14 -181 21 -253 19 -177 37 -454 30 -466 -9 -14 -17 -12 -129 32 -112 44 -140 45 -176 9 -28 -28 -26 -81 5 -118 28 -33 142 -84 254 -114 50 -13 126 -21 219 -25 140 -6 142 -6 142 16 0 20 -4 21 -114 21 -65 0 -144 7 -183 15 -140 31 -303 110 -303 146 0 5 9 18 20 29 20 20 20 20 72 -1 161 -65 210 -73 228 -39 12 22 1 213 -30 545 -11 116 -20 236 -20 268 0 51 -2 57 -21 57 -21 0 -21 -2 -15 -122z"></path><path id="p18b3Ij3px" d="M5560 2230 c0 -43 3 -50 20 -50 17 0 20 7 20 50 0 43 -3 50 -20 50 -17 0 -20 -7 -20 -50z"></path><path id="p1B2YMcB8j" d="M3300 2139 c0 -24 13 -46 58 -94 95 -105 159 -227 187 -363 40 -189 -17 -402 -154 -575 -120 -150 -285 -245 -485 -277 -115 -19 -264 8 -384 69 -22 11 -57 21 -77 21 -29 0 -35 -4 -35 -21 0 -14 5 -19 14 -16 7 3 23 -1 34 -9 65 -46 252 -93 369 -94 123 0 288 45 400 111 74 44 219 188 262 261 75 129 111 257 111 401 0 207 -77 401 -219 548 -28 29 -51 56 -51 61 0 4 -7 8 -15 8 -10 0 -15 -10 -15 -31z"></path><path id="p4sDXUx9f" d="M7360 2065 c0 -48 2 -55 20 -55 16 0 20 7 20 33 0 47 -10 77 -26 77 -10 0 -14 -15 -14 -55z"></path><path id="p15C3R037d" d="M7373 1893 c7 -101 28 -272 48 -380 11 -63 11 -63 45 -63 36 0 50 26 17 32 -19 4 -45 138 -63 333 -14 155 -18 175 -37 175 -14 0 -15 -13 -10 -97z"></path><path id="pg3L8fC3q" d="M4670 1873 c1 -64 57 -143 102 -143 28 0 21 25 -16 62 -21 21 -37 49 -41 71 -5 27 -12 37 -26 37 -14 0 -19 -7 -19 -27z"></path><path id="pTTqlURtg" d="M7570 1460 c0 -14 7 -20 23 -20 12 0 43 -7 69 -17 52 -18 75 -51 58 -83 -15 -28 -12 -50 6 -50 25 0 43 30 44 71 0 47 -44 93 -105 108 -68 17 -95 14 -95 -9z"></path><path id="paQDmrjUW" d="M2887 1379 c-19 -27 -45 -48 -77 -62 -64 -28 -67 -52 -6 -45 48 6 106 41 106 64 0 8 5 14 10 14 6 0 10 16 10 35 0 19 -3 35 -7 35 -5 -1 -21 -19 -36 -41z"></path><path id="pUST7lMCs" d="M2620 1290 c0 -17 7 -20 40 -20 45 0 57 23 18 34 -42 11 -58 7 -58 -14z"></path></g></g><g id="l2AXuSjAmAD3LO6ZL9WoX9R" fill="rgb(255,134,145)" style="transform: none;"><g style="transform: none;"><path id="pKMNJiUkA" d="M2533 3243 c-35 -3 -43 -8 -43 -24 0 -19 4 -20 103 -14 133 9 220 -9 347 -72 166 -82 297 -236 357 -418 35 -107 37 -237 5 -346 -27 -94 -29 -129 -4 -129 14 0 23 19 41 88 49 183 36 352 -38 507 -77 162 -176 262 -336 340 -134 65 -253 84 -432 68z"></path><path id="p14c2mJmYH" d="M1933 2618 c-17 -8 -23 -20 -23 -45 l0 -35 31 26 c36 31 92 35 129 9 14 -9 75 -57 137 -105 113 -90 143 -104 143 -68 0 13 -7 20 -19 20 -10 0 -21 9 -24 20 -3 12 -14 20 -26 20 -12 0 -21 6 -21 15 0 9 -9 15 -25 15 -18 0 -25 5 -25 20 0 13 -7 20 -19 20 -10 0 -21 9 -24 20 -3 12 -14 20 -26 20 -12 0 -21 6 -21 16 0 35 -133 58 -187 32z"></path><path id="pKwcuN0Yq" d="M2460 2401 c0 -19 10 -20 174 -23 l174 -3 39 -31 c24 -20 45 -49 58 -82 23 -61 45 -68 45 -17 0 46 -32 108 -68 134 -45 31 -104 40 -269 41 -145 0 -153 -1 -153 -19z"></path><path id="pg2Fc8Ik8" d="M3603 2412 c-38 -6 -73 -50 -73 -93 0 -106 137 -141 186 -47 38 74 -26 154 -113 140z"></path><path id="p11FmUP1HM" d="M2046 2222 c-48 -17 -74 -42 -42 -42 9 0 16 -7 16 -16 0 -11 5 -14 18 -9 9 4 32 12 51 17 39 11 61 30 61 52 0 21 -40 20 -104 -2z"></path><path id="pAb52ZXkU" d="M2160 2220 c0 -17 7 -20 40 -20 45 0 57 23 18 34 -42 11 -58 7 -58 -14z"></path><path id="p1GbC4NOK6" d="M2290 2185 c0 -15 12 -35 31 -52 85 -74 111 -117 128 -206 22 -122 81 -115 61 7 -17 105 -70 187 -156 245 -57 37 -64 38 -64 6z"></path><path id="p1DtYWT61C" d="M2120 2045 c0 -20 5 -25 25 -25 14 0 25 -6 25 -13 0 -7 29 -30 65 -50 36 -21 71 -46 78 -57 17 -29 47 -26 47 4 0 17 -11 33 -32 49 -35 25 -193 117 -203 117 -3 0 -5 -11 -5 -25z"></path><path id="p1CXrUPaeL" d="M2272 634 c-132 -67 -130 -260 3 -324 82 -40 183 -13 233 63 21 32 27 52 26 96 0 67 -20 110 -70 148 -46 35 -140 43 -192 17z"></path></g></g><g id="l7SuAMUyVCw0U7N0kIwXGwA" fill="rgb(252,183,94)" style="transform: none;"><g style="transform: none;"><path id="pxWakgsX4" d="M5883 2880 c-59 -19 -112 -110 -63 -110 12 0 22 9 25 23 9 35 74 61 132 53 26 -3 50 -11 51 -16 2 -6 8 -10 13 -10 12 0 49 -37 49 -50 0 -5 6 -13 13 -17 16 -11 111 -194 141 -276 14 -36 34 -118 45 -184 22 -127 52 -225 96 -313 32 -65 106 -193 114 -200 16 -13 53 -109 46 -120 -21 -34 -117 24 -154 94 -8 14 -18 26 -23 26 -4 0 -8 7 -8 15 0 8 -4 15 -10 15 -5 0 -10 9 -10 20 0 11 -18 58 -39 105 -39 83 -40 85 -75 85 -35 0 -36 -1 -35 -37 0 -34 1 -36 10 -14 14 35 29 16 79 -97 84 -187 151 -262 237 -262 46 0 83 25 83 58 0 9 -25 62 -56 117 -166 297 -193 363 -218 534 -31 208 -168 485 -266 540 -46 25 -129 35 -177 21z"></path><path id="pYRJQSbC9" d="M5897 2695 c-22 -28 -35 -35 -62 -35 -19 0 -35 -4 -35 -8 0 -18 26 -32 58 -32 27 0 42 8 68 36 l34 35 30 -21 c42 -30 75 -93 94 -177 25 -113 21 -171 -18 -266 -18 -45 -36 -95 -40 -112 -15 -73 -53 -415 -49 -438 12 -61 93 -102 152 -77 35 14 57 56 67 128 6 49 5 52 -15 52 -14 0 -21 -6 -21 -20 0 -48 -24 -109 -48 -120 -39 -17 -82 3 -96 47 -8 26 30 338 50 413 8 30 18 67 21 83 3 15 9 27 14 27 5 0 9 11 9 24 0 13 5 26 11 28 20 7 22 128 5 218 -21 106 -35 150 -47 150 -5 0 -9 7 -9 15 0 9 -9 15 -25 15 -20 0 -25 5 -25 25 0 28 -25 45 -67 45 -20 0 -36 -10 -56 -35z"></path><path id="pwboyhdAL" d="M5558 2673 c-10 -2 -18 -9 -18 -14 0 -5 -6 -9 -14 -9 -25 0 -23 -33 6 -150 26 -102 29 -133 29 -272 0 -149 1 -158 20 -158 18 0 19 8 19 139 0 139 -17 276 -45 360 -23 68 -21 71 34 71 42 0 53 -4 70 -26 23 -30 46 -97 63 -191 9 -52 15 -63 31 -63 17 0 19 5 13 48 -10 65 -43 188 -62 223 -22 43 -81 59 -146 42z"></path><path id="p16cYqvuFE" d="M7194 2549 c-33 -36 -33 -259 0 -259 10 0 14 33 19 138 2 75 4 138 3 140 -2 1 -11 -7 -22 -19z"></path><path id="p1Ag2AFOnk" d="M7230 2552 c0 -12 18 -27 50 -43 27 -13 50 -30 50 -36 0 -7 9 -13 20 -13 47 0 11 59 -57 94 -42 21 -63 20 -63 -2z"></path><path id="p5s1zr4Jp" d="M4721 2481 c-10 -10 -24 -42 -30 -70 -14 -68 -14 -71 8 -71 14 0 20 10 25 41 4 23 17 51 31 65 14 14 25 31 25 39 0 21 -37 18 -59 -4z"></path><path id="p19MYTm5Hw" d="M4790 2482 c0 -16 8 -23 35 -28 19 -3 35 -11 35 -18 0 -6 24 -60 54 -121 30 -60 73 -149 95 -197 39 -87 40 -88 75 -88 25 0 36 4 36 15 0 8 5 15 10 15 11 0 13 96 4 189 -6 49 -10 61 -24 61 -16 0 -17 -11 -13 -127 7 -159 0 -156 -87 37 -102 224 -129 264 -188 276 -28 6 -32 4 -32 -14z"></path><path id="pnivLHHkW" d="M5144 2490 c-48 -19 -75 -100 -34 -100 15 0 20 7 20 29 0 23 5 30 25 33 33 7 105 -13 105 -28 0 -7 3 -14 8 -16 4 -1 16 -28 26 -58 21 -60 152 -341 164 -350 4 -3 12 -14 18 -25 14 -26 84 -35 84 -11 0 9 7 16 15 16 11 0 15 11 15 40 0 29 -4 40 -15 40 -10 0 -17 -14 -21 -40 -4 -22 -10 -40 -14 -40 -26 0 -118 168 -191 350 -38 96 -66 136 -104 150 -39 15 -80 19 -101 10z"></path><path id="p14eeHgL08" d="M8110 2382 c-51 -52 -129 -188 -169 -294 -10 -26 -8 -28 13 -28 24 0 46 34 46 70 0 11 4 20 8 20 11 0 52 86 52 110 0 11 7 20 15 20 8 0 15 6 15 14 0 8 7 16 15 20 9 3 15 18 15 40 0 33 2 34 43 39 26 2 51 -1 65 -10 51 -31 219 -424 292 -680 18 -66 27 -83 41 -83 13 0 19 -7 19 -24 0 -14 5 -28 10 -31 22 -14 7 -34 -35 -46 -32 -9 -45 -19 -45 -31 0 -25 33 -23 88 3 43 21 44 23 39 62 -3 23 -16 50 -31 66 -17 18 -39 72 -70 171 -53 171 -135 379 -206 520 -43 86 -56 104 -85 116 -58 24 -75 18 -135 -44z"></path><path id="p120HoVgig" d="M7340 2370 c0 -53 2 -60 20 -60 16 0 20 7 20 38 0 52 -10 82 -26 82 -10 0 -14 -16 -14 -60z"></path><path id="p16RKsACsz" d="M7180 2198 c0 -39 12 -68 26 -68 10 0 14 13 14 45 0 38 -3 45 -20 45 -14 0 -20 -7 -20 -22z"></path><path id="pvxWPbl1f" d="M7350 2173 c0 -27 3 -92 7 -145 5 -88 8 -98 25 -98 19 0 20 5 13 118 -8 144 -13 172 -31 172 -10 0 -14 -13 -14 -47z"></path><path id="phUs4LsIZ" d="M3297 2043 c-15 -310 -127 -569 -341 -791 -137 -142 -250 -219 -430 -293 -50 -21 -92 -44 -94 -51 -2 -15 117 -70 204 -93 289 -76 605 32 790 268 233 298 217 712 -38 992 -32 35 -58 68 -58 74 0 6 -6 11 -14 11 -10 0 -14 -28 -19 -117z"></path><path id="pzBVn6BaQ" d="M8138 2108 c-24 -43 -50 -103 -80 -183 -42 -115 -98 -215 -120 -215 -11 0 -18 -7 -18 -20 0 -23 17 -25 54 -9 30 14 76 100 136 256 24 61 52 122 61 135 18 23 18 23 33 3 29 -39 95 -213 147 -383 54 -177 78 -222 119 -222 28 0 26 33 -3 49 -20 11 -34 46 -82 202 -32 104 -62 189 -67 189 -4 0 -8 9 -8 21 0 32 -41 119 -56 119 -8 0 -14 10 -14 24 0 45 -10 56 -51 56 -29 0 -41 -5 -51 -22z"></path><path id="ptZ2kF6M5" d="M7190 2088 c0 -30 13 -58 26 -58 9 0 14 12 14 35 0 28 -4 35 -20 35 -11 0 -20 -6 -20 -12z"></path><path id="p12RyEfgZy" d="M4676 2028 c-11 -42 -6 -144 9 -195 26 -89 89 -122 174 -92 48 17 73 79 31 79 -11 0 -20 -4 -20 -10 0 -22 -49 -42 -87 -35 -35 6 -39 10 -55 59 -11 33 -18 83 -18 134 0 63 -3 82 -14 82 -7 0 -16 -10 -20 -22z"></path><path id="pHWJh7jZH" d="M4883 2024 c-18 -8 -17 -74 1 -74 8 0 17 12 20 26 l7 27 22 -22 c13 -11 47 -64 77 -117 30 -53 72 -111 93 -130 42 -38 77 -45 77 -15 0 21 -19 31 -56 31 -20 0 -24 5 -24 30 0 17 -4 30 -10 30 -5 0 -10 7 -10 15 0 8 -9 15 -20 15 -15 0 -20 7 -20 29 0 39 -9 61 -26 61 -8 0 -14 10 -14 25 0 14 -3 25 -8 25 -4 0 -12 10 -17 23 -7 16 -19 23 -45 24 -19 1 -41 0 -47 -3z"></path><path id="pgXMqk9uT" d="M7902 2010 c-32 -52 -102 -226 -102 -255 0 -38 32 -72 78 -81 28 -6 32 -4 32 14 0 16 -8 23 -36 28 l-36 7 6 50 c4 27 14 56 22 64 7 8 14 30 14 49 0 22 5 34 13 34 18 0 37 43 37 80 0 35 -10 38 -28 10z"></path><path id="p16yZTas6L" d="M7200 1988 c0 -48 10 -78 26 -78 10 0 14 15 14 55 0 48 -2 55 -20 55 -16 0 -20 -7 -20 -32z"></path><path id="p7Q01Du8R" d="M5312 1992 c-8 -6 -19 -50 -27 -107 -11 -75 -19 -103 -36 -121 -12 -13 -28 -24 -36 -24 -7 0 -13 -9 -13 -20 0 -22 16 -25 54 -10 39 14 54 47 66 145 16 119 20 125 54 83 120 -145 211 -206 291 -193 60 8 85 31 92 83 5 38 4 42 -16 42 -16 0 -21 -6 -21 -24 0 -28 -42 -66 -74 -66 -11 0 -41 11 -65 25 -23 14 -52 25 -62 25 -12 0 -19 7 -19 20 0 15 -7 20 -24 20 -21 0 -25 6 -28 33 -2 22 -10 35 -25 42 -12 5 -23 19 -25 30 -2 15 -12 21 -38 23 -19 1 -41 -2 -48 -6z"></path><path id="ppAfYVAQ3" d="M5730 1955 c0 -49 23 -64 34 -22 12 44 7 67 -14 67 -17 0 -20 -7 -20 -45z"></path><path id="phOu1WCRJ" d="M4870 1880 c0 -33 3 -40 20 -40 21 0 25 16 14 58 -11 39 -34 27 -34 -18z"></path><path id="pBxXLwBkH" d="M7370 1875 c0 -38 3 -45 20 -45 21 0 26 23 14 68 -11 41 -34 26 -34 -23z"></path><path id="p1BEThOPqu" d="M7210 1873 c0 -43 11 -73 26 -73 10 0 14 14 14 50 0 43 -3 50 -20 50 -15 0 -20 -7 -20 -27z"></path><path id="pYDvjbKnd" d="M7383 1750 c3 -39 14 -120 23 -180 l18 -110 33 0 c18 0 33 5 33 10 0 6 -6 10 -14 10 -15 0 -28 58 -46 200 -16 124 -20 140 -37 140 -14 0 -15 -11 -10 -70z"></path><path id="pL6h3mn00" d="M7220 1753 c0 -34 12 -63 26 -63 10 0 14 13 14 40 0 33 -3 40 -20 40 -12 0 -20 -7 -20 -17z"></path><path id="p114JJloBT" d="M7232 1573 c4 -93 4 -94 -145 -34 -43 17 -91 31 -107 31 -29 0 -70 -29 -70 -50 0 -13 47 -13 55 1 9 14 84 1 103 -17 7 -8 31 -17 53 -20 21 -4 39 -10 39 -15 0 -5 22 -9 49 -9 58 0 61 5 61 101 0 63 -2 69 -21 69 -18 0 -20 -5 -17 -57z"></path><path id="pbExYKLPQ" d="M6910 1471 c0 -10 11 -29 25 -43 45 -45 288 -128 376 -128 22 0 29 5 29 20 0 16 -7 20 -32 20 -39 0 -156 30 -212 54 -21 9 -47 16 -57 16 -11 0 -19 4 -19 9 0 5 -10 13 -22 17 -26 8 -48 28 -48 43 0 6 -9 11 -20 11 -13 0 -20 -7 -20 -19z"></path><path id="p13r3GUVd6" d="M7560 1463 c0 -15 13 -22 62 -32 39 -8 67 -20 76 -32 12 -17 62 -28 62 -13 0 37 -69 77 -152 89 -43 5 -48 4 -48 -12z"></path><path id="p8YErJiSc" d="M7716 1345 c-4 -12 -27 -15 -121 -15 -91 0 -115 -3 -115 -14 0 -20 33 -26 152 -26 96 0 108 2 118 19 5 11 10 27 10 35 0 20 -36 21 -44 1z"></path></g></g><g id="l6agBy7yd0JOQExUUWeEwIP" fill="rgb(255,117,129)" style="transform: none;"><g style="transform: none;"><path id="p1HoJ9GL0h" d="M2510 3215 c0 -15 10 -25 38 -34 181 -64 424 -266 548 -457 87 -133 162 -311 179 -428 6 -35 12 -46 25 -46 11 0 18 8 18 23 0 12 8 49 18 82 14 46 19 90 18 185 0 107 -4 136 -27 205 -38 115 -90 198 -182 290 -65 66 -98 90 -175 128 -121 60 -211 79 -352 75 -102 -2 -108 -4 -108 -23z"></path></g></g><g id="l7FaeFX3gi0x70BVdRsWpbj" fill="rgb(211,154,92)" style="transform: none;"><g style="transform: none;"><path id="pA3vYEW4g" d="M3228 2183 c-55 -94 -168 -199 -265 -246 l-43 -21 0 -240 c0 -223 -1 -243 -21 -283 -30 -63 -70 -87 -149 -91 -36 -2 -91 1 -122 6 l-57 9 -37 -61 c-21 -34 -82 -105 -136 -159 -83 -84 -98 -104 -98 -131 0 -27 8 -38 44 -64 l44 -32 79 26 c188 61 338 150 477 284 155 148 263 317 325 507 43 134 55 215 56 373 l0 145 -40 3 c-35 3 -42 -1 -57 -25z"></path></g></g><g id="l7clJQfbkJBV3aESgDwREoX" fill="rgb(145,94,213)" style="transform: none;"><g style="transform: none;"><path id="pkXKghiC5" d="M2405 3246 c-63 -20 -178 -81 -213 -114 -17 -16 -38 -32 -45 -35 -20 -7 -99 -103 -136 -163 -41 -67 -81 -176 -81 -219 0 -33 2 -35 33 -35 31 0 35 4 47 43 16 55 60 141 102 198 36 51 105 129 113 129 3 0 26 15 52 34 66 46 140 82 212 102 34 10 61 21 61 26 0 9 -44 30 -85 41 -11 3 -38 0 -60 -7z"></path><path id="pJMsgDL8n" d="M1884 2565 c-7 -19 -14 -59 -14 -89 l0 -54 -187 -4 c-179 -3 -190 -4 -233 -28 -51 -29 -90 -88 -90 -137 0 -44 22 -43 38 1 19 51 51 86 96 107 35 16 68 19 229 19 l187 0 0 73 c0 73 12 104 50 134 12 10 9 12 -23 13 -34 0 -40 -4 -53 -35z"></path><path id="pKINTPfvu" d="M3262 2255 c-14 -31 -16 -95 -3 -95 5 0 11 6 14 13 3 8 10 7 26 -7 30 -27 36 -15 25 51 -7 47 -13 59 -30 61 -14 2 -24 -5 -32 -23z"></path><path id="p6woZmRND" d="M863 2213 c-6 -21 -27 -83 -47 -138 -187 -530 128 -1116 679 -1261 85 -23 121 -27 240 -27 135 -1 168 4 318 44 22 6 37 16 37 25 0 20 -58 16 -170 -11 -95 -23 -259 -24 -357 -2 -179 40 -356 140 -486 276 -152 159 -239 340 -266 556 -16 120 3 249 58 405 46 126 51 170 23 170 -12 0 -22 -12 -29 -37z"></path><path id="p48evIyli" d="M1994 2201 c-158 -71 -238 -282 -174 -455 30 -79 116 -165 196 -197 88 -34 209 -33 285 2 78 37 133 90 169 163 34 69 49 136 31 136 -6 0 -11 7 -11 15 0 8 -6 15 -14 15 -10 0 -19 -20 -26 -57 -20 -96 -73 -163 -165 -211 -68 -36 -198 -38 -260 -5 -228 122 -225 431 5 544 50 24 66 49 31 49 -11 0 -21 4 -23 10 -2 5 -21 1 -44 -9z"></path><path id="pdgXIfxjc" d="M474 2136 c-59 -50 -22 -146 56 -146 78 0 115 96 56 146 -15 13 -40 24 -56 24 -16 0 -41 -11 -56 -24z"></path><path id="p17rf68TmF" d="M2038 2060 c-40 -31 -51 -81 -46 -209 3 -103 5 -113 29 -136 46 -47 82 -43 194 20 55 32 110 68 123 82 22 25 30 63 12 63 -5 0 -10 11 -10 25 0 19 -11 33 -47 55 -26 17 -53 30 -60 30 -7 0 -13 4 -13 9 0 5 -8 12 -19 16 -10 3 -31 17 -46 31 -39 36 -83 41 -117 14z m158 -95 c103 -61 123 -84 96 -108 -27 -25 -192 -117 -209 -117 -8 0 -20 14 -26 30 -6 17 -15 30 -19 30 -4 0 -8 38 -8 85 0 50 4 85 10 85 6 0 10 6 10 13 0 17 20 37 38 37 8 0 56 -25 108 -55z"></path><path id="p16c92JLCm" d="M1360 1575 c0 -73 57 -146 129 -164 20 -5 252 -35 516 -66 264 -31 495 -58 513 -62 32 -5 45 -23 17 -23 -8 0 -15 -7 -15 -15 0 -8 -4 -15 -10 -15 -5 0 -10 -9 -10 -20 0 -11 -7 -20 -15 -20 -10 0 -15 -11 -15 -35 0 -19 4 -35 8 -35 11 0 89 105 113 152 l19 37 -33 6 c-17 3 -261 32 -542 65 -280 33 -522 65 -538 71 -38 16 -84 71 -98 119 -15 51 -39 53 -39 5z"></path><path id="pdTWLoGVz" d="M2310 995 c0 -19 2 -35 4 -35 7 0 66 58 66 64 0 3 -16 6 -35 6 -33 0 -35 -2 -35 -35z"></path><path id="poDfIkJMe" d="M2360 910 c0 -28 3 -30 35 -30 44 0 44 9 0 38 l-35 22 0 -30z"></path></g></g><g id="l3saWjAzefyAwGRhgUNEiXn" fill="rgb(76,129,245)" style="transform: none;"><g style="transform: none;"><path id="pGJjxcLUd" d="M1932 3299 c-458 -59 -859 -390 -1006 -831 -32 -95 -60 -224 -52 -244 3 -8 2 -14 -2 -14 -4 0 -8 -9 -8 -20 0 -12 7 -20 17 -20 18 0 32 34 44 105 3 22 17 77 31 123 182 607 830 991 1409 836 133 -35 175 -40 175 -21 0 20 -138 64 -258 82 -104 16 -248 18 -350 4z"></path><path id="p4QbYObcZ" d="M3280 2255 c0 -24 -5 -35 -15 -35 -11 0 -15 -11 -15 -37 1 -34 2 -36 14 -20 13 17 46 14 46 -4 0 -5 5 -9 11 -9 12 0 6 89 -7 124 -12 30 -34 18 -34 -19z m16 -42 c-8 -15 -15 -25 -16 -21 0 12 23 58 27 54 3 -2 -2 -17 -11 -33z"></path><path id="p8OwERVi4" d="M3947 2150 c-123 -39 -180 -195 -111 -307 35 -58 114 -103 178 -103 62 0 140 41 173 91 40 60 44 156 11 219 -35 65 -91 101 -164 106 -32 2 -72 -1 -87 -6z"></path><path id="p1ElOwbHFg" d="M2290 966 c0 -24 7 -39 20 -49 19 -13 15 -15 -55 -26 -42 -6 -95 -11 -119 -11 -62 0 -106 -10 -106 -26 0 -18 20 -20 144 -12 117 7 256 33 256 49 0 5 -4 9 -8 9 -5 0 -27 14 -50 32 -30 23 -40 37 -36 50 4 14 0 18 -20 18 -23 0 -26 -4 -26 -34z"></path></g></g><g id="lHvp0yATfOMGtsHv2N4cBl" fill="rgb(246,97,96)" style="transform: none;"><g style="transform: none;"><path id="p16tMW5U7m" d="M2866 2339 c50 -56 54 -76 54 -279 l0 -191 68 35 c124 66 229 167 283 273 13 26 19 32 20 18 0 -11 3 -15 5 -8 11 25 -20 54 -99 92 -96 48 -173 69 -277 78 l-75 6 21 -24z"></path><path id="pHksx6lub" d="M2540 1265 c0 -8 -4 -15 -10 -15 -5 0 -10 -7 -10 -15 0 -8 -4 -15 -10 -15 -5 0 -10 -11 -10 -25 0 -18 -5 -25 -20 -25 -16 0 -20 -7 -20 -37 0 -35 0 -36 20 -18 11 10 20 23 20 29 0 6 9 17 20 24 12 7 18 17 15 21 -2 5 2 12 11 15 9 4 14 9 11 12 -3 3 3 14 14 25 11 11 17 24 14 29 -10 16 -45 12 -45 -5z"></path><path id="p18SdJPqG4" d="M2331 1008 c0 -18 3 -27 6 -20 2 6 10 12 17 12 7 0 21 9 31 20 18 20 17 20 -18 20 -35 0 -37 -2 -36 -32z"></path></g></g><g id="l7Qy6kgAqrE3nESm3WFJjWN" fill="rgb(214,88,127)" style="transform: none;"><g style="transform: none;"><path id="pWR9gDQhc" d="M2367 3226 c-217 -89 -374 -269 -432 -491 -14 -57 -21 -165 -10 -165 25 0 63 33 69 60 7 38 12 37 134 -20 93 -44 152 -82 223 -146 52 -46 50 -50 -23 -38 -28 5 -38 11 -38 25 0 12 -7 19 -19 19 -10 0 -21 9 -24 20 -3 11 -14 20 -25 20 -11 0 -22 9 -25 20 -3 11 -14 20 -25 20 -11 0 -22 9 -25 20 -4 15 -14 20 -41 20 -29 0 -36 4 -36 20 0 16 -7 20 -35 20 -44 0 -48 -26 -6 -35 16 -3 89 -53 162 -111 l133 -105 196 7 c208 7 280 0 329 -35 14 -10 58 -24 96 -30 117 -20 243 -68 304 -118 l25 -20 21 41 c19 38 20 46 9 106 -70 387 -404 776 -768 894 -95 31 -97 31 -169 2z m-187 -159 c0 -2 -17 -19 -37 -38 l-38 -34 34 38 c33 34 41 42 41 34z m-96 -114 c-34 -46 -50 -64 -39 -43 13 24 55 80 61 80 3 0 -7 -17 -22 -37z m-61 -98 c-9 -19 -18 -33 -21 -31 -4 5 26 66 33 66 3 0 -3 -16 -12 -35z"></path><path id="pa94vCjU6" d="M2108 2233 c-10 -2 -18 -9 -18 -14 0 -23 31 -39 77 -39 28 0 73 -11 108 -25 33 -14 61 -25 63 -25 1 0 2 13 2 29 0 23 -7 32 -34 45 -58 27 -152 41 -198 29z"></path><path id="pER57ltPf" d="M3295 2210 c-4 -11 0 -29 9 -42 16 -22 16 -21 16 20 0 44 -14 56 -25 22z"></path><path id="pCxP8vTMM" d="M2013 2208 c-48 -23 -20 -60 32 -44 26 8 35 16 35 33 0 26 -28 30 -67 11z"></path><path id="pFMFZKIwv" d="M2092 2050 c2 -14 37 -41 108 -83 78 -46 106 -68 108 -84 5 -33 52 -33 52 0 0 38 -25 62 -131 126 -107 65 -143 75 -137 41z"></path><path id="pJe8qh2gg" d="M2458 1845 c-4 -34 -2 -36 21 -33 21 2 27 9 29 36 3 28 0 32 -21 32 -21 0 -25 -6 -29 -35z"></path><path id="ptilNwfwc" d="M2546 1288 c-9 -12 -16 -28 -16 -35 0 -7 -4 -13 -10 -13 -5 0 -10 -6 -10 -14 0 -8 -7 -16 -15 -20 -8 -3 -15 -15 -15 -26 0 -11 -5 -20 -12 -20 -16 0 -128 -111 -128 -126 0 -7 -10 -14 -22 -16 -19 -2 -24 -10 -26 -40 -2 -29 0 -38 12 -38 9 0 16 -7 16 -15 0 -10 11 -15 35 -15 34 0 34 1 17 18 -9 11 -20 17 -23 16 -4 -2 -12 2 -18 9 -8 10 -6 18 7 29 23 20 161 159 178 179 8 9 14 21 14 27 0 7 5 12 10 12 6 0 10 5 10 10 0 6 9 20 20 32 10 12 17 25 14 30 -3 4 -1 8 4 8 6 0 12 7 16 15 9 25 -40 18 -58 -7z"></path></g></g><g id="lRzgpQxbixtLMq6Yw2UkFo" fill="rgb(224,75,117)" style="transform: none;"><g style="transform: none;"><path id="p1F8G0JoCB" d="M1937 2713 c-3 -16 -9 -56 -13 -91 l-7 -63 34 20 c65 40 86 31 248 -98 l113 -91 85 0 84 0 -20 26 c-81 103 -262 220 -416 270 l-70 22 -7 -21 c-5 -15 -7 -10 -5 16 3 44 -18 52 -26 10z m20 -100 c-3 -10 -5 -2 -5 17 0 19 2 27 5 18 2 -10 2 -26 0 -35z"></path><path id="pmEh4RiXw" d="M2096 2229 c-58 -9 -69 -18 -52 -41 11 -15 20 -17 62 -9 184 35 354 -115 354 -310 0 -57 1 -60 23 -57 19 3 22 10 25 58 12 217 -189 393 -412 359z"></path><path id="p1DLz9NT6X" d="M2004 2197 c-7 -20 3 -37 22 -37 18 0 18 24 -1 40 -12 10 -16 9 -21 -3z"></path><path id="pfBvxdfIV" d="M2110 2047 c0 -24 36 -52 135 -106 6 -3 -15 19 -46 49 -56 55 -56 55 -5 11 28 -24 59 -54 69 -65 10 -12 16 -15 12 -8 -6 11 -3 12 14 3 11 -7 21 -14 21 -17 0 -3 -4 -3 -9 1 -5 3 -3 -8 5 -25 19 -38 54 -41 54 -6 0 14 -10 36 -22 50 -23 25 -198 131 -198 119 0 -3 -7 0 -15 7 -13 11 -15 8 -15 -13z"></path></g></g><g id="l6QtfnhgVvYZRoQZtaLIP17" fill="rgb(51,112,245)" style="transform: none;"><g style="transform: none;"><path id="pRtqgASQl" d="M1889 3284 c-504 -91 -909 -496 -998 -998 -14 -77 -14 -76 8 -76 12 0 29 16 44 43 114 192 348 363 577 421 157 39 250 42 405 11 29 -6 30 -5 42 44 30 125 123 268 232 355 74 60 185 119 257 137 l49 13 -60 18 c-158 48 -394 62 -556 32z"></path><path id="p18sTBHjl5" d="M3295 2209 c-5 -14 -1 -27 9 -37 15 -15 16 -13 16 21 0 40 -15 50 -25 16z"></path><path id="pv8LSnins" d="M2225 959 c-33 -21 -86 -49 -117 -61 -40 -16 -58 -28 -58 -40 0 -16 9 -17 83 -12 102 7 259 32 270 43 5 5 -12 23 -37 40 -49 34 -53 40 -34 59 9 9 5 12 -17 11 -17 0 -57 -18 -90 -40z"></path></g></g><g id="l4eDwSbgvwVmW0N6Ss5zYWB" fill="rgb(130,71,207)" style="transform: none;"><g style="transform: none;"><path id="pPUBZkNrx" d="M1648 2733 c-33 -8 -20 -33 17 -33 28 0 35 4 35 20 0 20 -14 23 -52 13z"></path><path id="p58ojPUHB" d="M1780 2720 c0 -16 7 -20 35 -20 40 0 49 24 13 34 -38 10 -48 7 -48 -14z"></path><path id="p14GmRhNfU" d="M1371 2667 c-66 -27 -77 -47 -27 -47 20 0 36 5 36 10 0 6 11 10 25 10 20 0 25 5 25 25 0 14 -1 25 -2 25 -2 -1 -27 -11 -57 -23z"></path><path id="pL86xqcIb" d="M1258 2612 c-37 -22 -35 -32 7 -32 31 0 35 3 35 25 0 29 -6 30 -42 7z"></path><path id="pS97U2eCT" d="M887 2238 c-42 -90 -97 -280 -108 -376 -20 -171 15 -371 94 -527 107 -213 290 -385 502 -471 206 -84 397 -94 648 -32 114 28 116 46 5 46 -139 -1 -348 60 -503 146 -155 87 -325 243 -419 385 -62 92 -140 258 -166 351 -25 91 -50 247 -50 316 0 28 7 71 15 94 17 47 20 100 6 100 -5 0 -16 -15 -24 -32z"></path><path id="pmrgQPRVr" d="M2280 980 c0 -16 4 -30 8 -30 5 0 21 14 37 30 l29 30 -37 0 c-34 0 -37 -2 -37 -30z"></path><path id="pohRFmQwo" d="M2180 915 c0 -30 3 -30 41 -8 38 23 37 33 -6 33 -31 0 -35 -3 -35 -25z"></path></g></g><g id="l3dJQvRKPeYfsxO0AVSlC4" fill="rgb(255,152,0)" style="transform: none;"><g style="transform: none;"><path id="p9gpc19S0" d="M5856 2861 c-44 -29 -55 -58 -56 -143 0 -66 3 -79 19 -88 36 -19 63 -11 102 30 l38 40 35 -31 c54 -47 74 -88 97 -195 23 -114 21 -143 -21 -245 -17 -41 -35 -94 -41 -119 -13 -66 -49 -358 -49 -406 0 -119 158 -150 198 -39 8 22 17 101 21 179 4 99 10 141 19 144 8 2 26 -26 48 -75 74 -162 89 -188 138 -239 60 -61 117 -79 161 -50 44 29 33 67 -69 239 -109 184 -147 282 -177 460 -22 134 -47 207 -115 338 -58 112 -111 181 -157 202 -50 24 -153 23 -191 -2z"></path><path id="pNhySv1xy" d="M5564 2671 c-17 -4 -36 -11 -42 -15 -16 -10 -15 -65 2 -114 33 -91 49 -241 43 -382 -7 -149 -13 -180 -32 -180 -8 0 -23 14 -35 30 -26 36 -149 294 -175 365 -10 28 -25 58 -34 69 -37 43 -127 60 -168 31 -31 -22 -38 -89 -23 -231 12 -118 8 -184 -11 -184 -6 0 -28 39 -50 88 -89 193 -154 315 -176 329 -13 9 -43 18 -67 20 -38 5 -48 2 -69 -19 -39 -39 -47 -105 -47 -381 0 -242 1 -255 23 -297 26 -54 71 -74 132 -60 64 14 70 27 70 148 0 133 11 138 74 32 119 -202 142 -224 224 -217 76 7 95 32 112 151 7 54 18 103 24 109 8 8 20 0 44 -28 69 -86 119 -133 169 -160 93 -51 183 -30 201 46 4 19 10 147 14 284 5 234 4 257 -16 355 -24 110 -48 177 -72 197 -20 16 -78 23 -115 14z"></path><path id="pNicecRST" d="M7196 2548 c-13 -18 -16 -53 -15 -178 0 -85 4 -193 9 -240 22 -210 50 -597 45 -617 -7 -30 -17 -29 -118 11 -119 48 -146 52 -180 26 -33 -26 -36 -75 -7 -113 22 -28 137 -79 245 -110 58 -16 113 -20 314 -24 228 -5 245 -4 258 13 22 30 16 77 -14 106 -34 32 -92 49 -198 57 l-79 6 -17 102 c-26 156 -49 403 -60 653 -5 124 -11 235 -14 247 -6 26 -97 83 -132 83 -12 0 -29 -10 -37 -22z"></path><path id="p1ATHsB07Y" d="M8153 2421 c-55 -35 -109 -120 -222 -357 -128 -268 -142 -310 -118 -348 36 -54 149 -59 185 -8 29 40 66 118 96 202 33 92 78 182 92 187 23 8 106 -199 189 -469 44 -144 62 -163 143 -155 29 3 67 14 85 25 27 16 32 24 29 53 -1 19 -15 50 -32 70 -18 22 -39 71 -54 125 -75 258 -237 635 -288 668 -40 26 -71 28 -105 7z"></path></g></g><g id="l6uFq0dTEQ9GMib4QwbGEkE" fill="rgb(121,51,174)" style="transform: none;"><g style="transform: none;"><path id="pma1MSIK2" d="M1916 2698 c-3 -13 -6 -52 -6 -88 0 -64 0 -64 19 -45 27 27 34 148 10 153 -10 2 -19 -6 -23 -20z"></path><path id="pHHnJaoFe" d="M1997 2199 c-19 -11 -21 -18 -8 -38 10 -16 51 -6 51 13 0 22 -23 36 -43 25z"></path><path id="p16ACDojyf" d="M2080 2051 c0 -12 14 -26 38 -38 20 -10 60 -32 87 -48 l50 -30 -70 67 c-71 68 -105 84 -105 49z"></path><path id="pdVoWHgwg" d="M2302 1901 c19 -30 4 -46 -94 -103 -119 -70 -124 -72 -147 -49 -18 18 -19 18 -25 -12 -13 -67 56 -65 178 5 148 84 179 129 111 161 -34 16 -35 16 -23 -2z"></path><path id="pWRz9L3v8" d="M2454 1816 c-17 -80 -87 -171 -161 -210 -66 -34 -182 -39 -255 -11 -14 6 -18 2 -18 -18 0 -33 48 -50 139 -49 136 1 261 81 314 200 39 90 41 109 12 114 -20 4 -25 0 -31 -26z"></path><path id="p6SbLgxCK" d="M2054 1323 c13 -94 134 -299 212 -356 28 -22 16 -29 152 98 64 61 191 229 181 240 -5 4 -503 65 -533 65 -16 0 -18 -6 -12 -47z"></path></g></g><g id="l5dQmnEcEmc64zsxTmD9fxW" fill="rgb(89,42,205)" style="transform: none;"><g style="transform: none;"><path id="p14eFtpTZv" d="M1640 2734 c-264 -32 -504 -163 -662 -362 -113 -142 -135 -230 -108 -438 49 -390 265 -723 601 -925 143 -85 347 -152 509 -165 89 -7 146 9 259 75 68 40 87 65 57 77 -22 8 -111 124 -149 194 -20 36 -43 90 -53 120 -9 30 -18 56 -19 58 -1 1 -128 18 -282 36 -277 34 -320 44 -354 82 -48 55 -49 63 -49 426 0 338 1 344 23 383 14 24 40 50 67 65 43 24 54 25 233 28 l187 4 0 56 c0 34 7 72 19 96 10 23 21 64 24 91 3 28 7 57 9 64 2 9 -10 17 -32 22 -43 10 -233 19 -280 13z"></path><path id="pFuDaUcyc" d="M1954 2171 c-54 -38 -92 -86 -123 -151 -22 -46 -26 -69 -26 -140 0 -72 4 -94 28 -145 40 -86 110 -154 190 -184 25 -10 27 -9 27 14 0 18 -10 30 -37 44 -49 25 -105 84 -134 141 -34 65 -34 196 -1 260 30 56 65 95 118 129 36 23 40 29 29 44 -17 23 -26 22 -71 -12z"></path><path id="prtu6GsbH" d="M2042 2063 c-31 -12 -42 -61 -42 -191 0 -124 1 -130 25 -156 14 -15 30 -24 35 -21 13 8 13 38 0 51 -7 7 -10 61 -8 140 l3 129 28 3 c16 2 42 -6 62 -18 46 -28 44 -13 -3 33 -36 35 -65 44 -100 30z"></path></g></g></svg>